<svg width="40" height="40" viewBox="0 0 40 40" fill="none" xmlns="http://www.w3.org/2000/svg">
<path d="M0 0H40V0C40 22.0914 22.0914 40 0 40V40V0Z" fill="#95C750"/>
<path d="M14.8555 23.7377C14.6312 23.7363 14.4095 23.6905 14.203 23.6031C13.9798 23.5094 13.7785 23.3706 13.6116 23.1953L10.3695 19.8635C10.1506 19.6463 10.0199 19.3557 10.0025 19.0478C9.98377 18.7554 10.0706 18.466 10.2472 18.2322C10.4222 18.0279 10.658 17.885 10.9201 17.8244C11.2016 17.7572 11.495 17.7572 11.7765 17.8244L14.0602 18.375V10.2187C14.0558 10.0247 14.0907 9.8318 14.1629 9.65166C14.2351 9.47152 14.3431 9.30789 14.4803 9.17067C14.6175 9.03344 14.7812 8.92546 14.9613 8.85326C15.1414 8.78106 15.3343 8.74614 15.5284 8.7506C15.7227 8.74496 15.9161 8.77908 16.0968 8.85087C16.2774 8.92265 16.4415 9.03059 16.579 9.16806C16.7165 9.30553 16.8244 9.46963 16.8962 9.6503C16.968 9.83097 17.0021 10.0244 16.9965 10.2187V14.8474H17.649C17.7968 14.8453 17.9445 14.8589 18.0894 14.8882C18.2388 14.9226 18.3849 14.9703 18.5258 15.0309L21.6251 16.5806C21.9747 16.7548 22.255 17.0423 22.4204 17.3962C22.5733 17.7446 22.6296 18.1278 22.5835 18.5055L21.9922 22.2696C21.9646 22.4817 21.8943 22.6861 21.7857 22.8704C21.6771 23.0547 21.5323 23.2152 21.3601 23.3421C21.0091 23.6106 20.5785 23.7542 20.1366 23.7499L14.8555 23.7377Z" fill="#1B4A4D"/>
</svg>
