<svg width="450" height="205" viewBox="0 0 450 205" fill="none" xmlns="http://www.w3.org/2000/svg">
<g clip-path="url(#clip0_584_5693)">
<g clip-path="url(#clip1_584_5693)">
<path fill-rule="evenodd" clip-rule="evenodd" d="M383.18 135.108C384.498 135.107 385.802 135.388 387.003 135.931C387.715 134.521 388.777 133.318 390.089 132.437C391.4 131.556 392.915 131.027 394.49 130.901C396.064 130.774 397.645 131.055 399.079 131.716C400.514 132.377 401.755 133.395 402.682 134.674C403.96 134.031 405.371 133.697 406.801 133.7C408.837 133.697 410.816 134.367 412.431 135.608C414.045 136.848 415.203 138.588 415.723 140.556C417.396 139.916 419.219 139.778 420.97 140.158C422.72 140.538 424.322 141.42 425.579 142.696C426.836 143.973 427.693 145.588 428.046 147.344C428.399 149.1 428.232 150.921 427.566 152.584C429.135 153.541 430.381 154.946 431.145 156.618C431.908 158.289 432.154 160.151 431.852 161.963C431.549 163.776 430.711 165.457 429.445 166.789C428.18 168.121 426.545 169.045 424.75 169.441C424.535 171.732 423.47 173.859 421.766 175.404C420.061 176.949 417.84 177.801 415.539 177.79C404.353 177.79 394.175 176.54 383.009 176.54C381.528 176.54 380.07 176.182 378.757 175.498C377.443 174.814 376.315 173.824 375.466 172.61C374.617 171.397 374.073 169.997 373.88 168.529C373.687 167.061 373.85 165.568 374.357 164.177C372.546 163.558 370.974 162.389 369.857 160.835C368.741 159.281 368.137 157.417 368.128 155.504C368.119 153.59 368.707 151.721 369.809 150.157C370.911 148.592 372.473 147.41 374.278 146.774C373.903 145.406 373.849 143.969 374.121 142.576C374.392 141.184 374.982 139.873 375.844 138.745C376.705 137.618 377.816 136.705 379.088 136.078C380.361 135.45 381.761 135.125 383.18 135.128V135.108Z" fill="#95C750"/>
<path fill-rule="evenodd" clip-rule="evenodd" d="M400.642 164.006C401.958 164.004 403.259 164.285 404.458 164.828C405.17 163.418 406.232 162.215 407.543 161.334C408.855 160.453 410.37 159.924 411.945 159.798C413.519 159.672 415.1 159.953 416.534 160.613C417.969 161.274 419.21 162.293 420.137 163.572C421.36 162.961 422.703 162.63 424.07 162.604C425.436 162.577 426.792 162.854 428.038 163.416C429.284 163.978 430.389 164.81 431.274 165.852C432.158 166.894 432.8 168.12 433.152 169.441C434.203 169.045 435.318 168.842 436.441 168.842C437.949 168.837 439.435 169.202 440.768 169.905C442.102 170.607 443.242 171.627 444.09 172.873C444.938 174.12 445.466 175.555 445.63 177.054C445.793 178.552 445.587 180.068 445.028 181.468C446.619 182.418 447.886 183.825 448.665 185.507C449.443 187.188 449.697 189.065 449.392 190.893C449.087 192.721 448.238 194.414 446.956 195.751C445.674 197.089 444.018 198.009 442.205 198.391C441.99 200.682 440.925 202.809 439.22 204.354C437.516 205.899 435.295 206.751 432.994 206.741C421.808 206.741 411.623 205.49 400.457 205.49C398.971 205.494 397.505 205.138 396.186 204.453C394.867 203.768 393.733 202.773 392.882 201.555C392.031 200.336 391.487 198.93 391.297 197.455C391.107 195.981 391.277 194.482 391.792 193.088C389.981 192.469 388.408 191.301 387.291 189.747C386.174 188.193 385.569 186.33 385.56 184.417C385.55 182.503 386.137 180.634 387.239 179.069C388.34 177.504 389.902 176.321 391.706 175.685C391.34 174.316 391.292 172.882 391.567 171.492C391.843 170.102 392.434 168.794 393.294 167.669C394.155 166.544 395.263 165.631 396.532 165.002C397.802 164.372 399.199 164.043 400.615 164.039L400.642 164.006Z" fill="#95C750"/>
<path fill-rule="evenodd" clip-rule="evenodd" d="M66.0082 135.108C64.6899 135.107 63.3866 135.388 62.1854 135.931C61.4735 134.521 60.4109 133.318 59.0998 132.437C57.7887 131.556 56.2731 131.027 54.6986 130.901C53.1241 130.774 51.5436 131.055 50.1089 131.716C48.6742 132.377 47.4336 133.395 46.5061 134.674C45.2286 134.031 43.8176 133.697 42.3873 133.7C40.3516 133.697 38.372 134.367 36.7578 135.608C35.1436 136.848 33.9858 138.588 33.4653 140.556C31.7923 139.916 29.969 139.778 28.2186 140.158C26.4681 140.538 24.8664 141.42 23.6096 142.696C22.3529 143.973 21.4955 145.588 21.1424 147.344C20.7894 149.1 20.956 150.921 21.6219 152.584C20.0535 153.539 18.8064 154.941 18.0408 156.611C17.2752 158.28 17.0259 160.14 17.3251 161.952C17.6242 163.763 18.4581 165.445 19.7197 166.779C20.9812 168.114 22.6129 169.04 24.4051 169.441C24.6204 171.732 25.6851 173.859 27.3898 175.404C29.0946 176.949 31.3158 177.801 33.6166 177.79C44.802 177.79 54.9807 176.54 66.1463 176.54C67.627 176.54 69.0857 176.182 70.3989 175.498C71.7121 174.814 72.841 173.824 73.6899 172.61C74.5389 171.397 75.083 169.997 75.2759 168.529C75.4689 167.061 75.3052 165.568 74.7986 164.177C76.6091 163.558 78.1818 162.389 79.2981 160.835C80.4143 159.281 81.0188 157.417 81.0275 155.504C81.0361 153.59 80.4486 151.721 79.3465 150.157C78.2444 148.592 76.6824 147.41 74.8775 146.774C75.2554 145.407 75.3125 143.971 75.0444 142.578C74.7763 141.186 74.1902 139.874 73.3318 138.745C72.4734 137.616 71.3659 136.7 70.0956 136.069C68.8253 135.439 67.4265 135.11 66.0082 135.108Z" fill="#95C750"/>
<path fill-rule="evenodd" clip-rule="evenodd" d="M48.5128 164.006C47.1966 164.004 45.8953 164.285 44.6966 164.828C43.9847 163.418 42.9221 162.215 41.611 161.334C40.2999 160.453 38.7843 159.924 37.2098 159.798C35.6353 159.672 34.0548 159.953 32.6201 160.613C31.1854 161.274 29.9448 162.293 29.0174 163.572C27.7945 162.961 26.451 162.63 25.0845 162.604C23.718 162.577 22.3626 162.854 21.1167 163.416C19.8708 163.978 18.7655 164.81 17.881 165.852C16.9964 166.894 16.3549 168.12 16.0028 169.441C14.9511 169.045 13.8367 168.842 12.713 168.842C10.27 168.842 7.92699 169.812 6.1995 171.54C4.47201 173.267 3.50152 175.61 3.50152 178.053C3.50229 179.217 3.72562 180.369 4.15948 181.448C2.56174 182.393 1.28671 183.799 0.501484 185.481C-0.283739 187.163 -0.542523 189.042 -0.240944 190.874C0.0606353 192.705 0.908505 194.403 2.19154 195.745C3.47458 197.086 5.13293 198.008 6.94925 198.391C7.16452 200.682 8.22926 202.809 9.93397 204.354C11.6387 205.899 13.86 206.751 16.1607 206.741C27.3461 206.741 37.5314 205.49 48.6971 205.49C50.1836 205.494 51.649 205.138 52.9682 204.453C54.2873 203.768 55.421 202.773 56.2724 201.555C57.1238 200.336 57.6677 198.93 57.8575 197.455C58.0473 195.981 57.8774 194.482 57.3624 193.088C59.1732 192.469 60.7463 191.301 61.8632 189.747C62.9801 188.193 63.5852 186.33 63.5946 184.417C63.604 182.503 63.0172 180.634 61.9157 179.069C60.8142 177.504 59.2526 176.321 57.448 175.685C57.8231 174.316 57.8768 172.879 57.6049 171.485C57.3329 170.092 56.7427 168.781 55.8803 167.653C55.0179 166.526 53.9066 165.613 52.6331 164.986C51.3597 164.359 49.9586 164.035 48.5391 164.039L48.5128 164.006Z" fill="#95C750"/>
<path d="M411.445 79.1895H277.714V206.709H411.445V79.1895Z" fill="#F77917"/>
<g style="mix-blend-mode:multiply" opacity="0.5">
<path fill-rule="evenodd" clip-rule="evenodd" d="M291.46 79.1895H277.709V206.709H411.447V199.176L291.46 79.1895Z" fill="#F77917"/>
</g>
<path d="M337.524 96.0186H297.592V136.747H337.524V96.0186Z" fill="white"/>
<path fill-rule="evenodd" clip-rule="evenodd" d="M297.612 112.889C296.908 112.889 296.233 112.609 295.735 112.111C295.237 111.613 294.957 110.938 294.957 110.234C294.957 109.53 295.237 108.855 295.735 108.357C296.233 107.859 296.908 107.579 297.612 107.579H337.544C338.248 107.579 338.923 107.859 339.421 108.357C339.919 108.855 340.199 109.53 340.199 110.234C340.199 110.938 339.919 111.613 339.421 112.111C338.923 112.609 338.248 112.889 337.544 112.889H327.813V136.74C327.813 137.444 327.533 138.119 327.035 138.617C326.537 139.115 325.862 139.395 325.158 139.395C324.454 139.395 323.778 139.115 323.281 138.617C322.783 138.119 322.503 137.444 322.503 136.74V112.889H312.633V136.74C312.633 137.444 312.354 138.119 311.856 138.617C311.358 139.115 310.683 139.395 309.979 139.395C309.274 139.395 308.599 139.115 308.101 138.617C307.603 138.119 307.324 137.444 307.324 136.74V112.889H297.612Z" fill="#F77917"/>
<path fill-rule="evenodd" clip-rule="evenodd" d="M297.592 96.0186H308.284L337.524 125.252V136.74H297.592V96.0186Z" fill="#E6E6E6"/>
<path fill-rule="evenodd" clip-rule="evenodd" d="M297.612 112.889C296.908 112.889 296.233 112.609 295.735 112.111C295.237 111.613 294.957 110.938 294.957 110.234C294.957 109.53 295.237 108.855 295.735 108.357C296.233 107.859 296.908 107.579 297.612 107.579H319.851L327.813 115.54V136.74C327.813 137.444 327.533 138.119 327.035 138.617C326.537 139.115 325.862 139.395 325.158 139.395C324.454 139.395 323.778 139.115 323.281 138.617C322.783 138.119 322.503 137.444 322.503 136.74V112.889H312.633V136.74C312.633 137.444 312.354 138.119 311.856 138.617C311.358 139.115 310.683 139.395 309.979 139.395C309.274 139.395 308.599 139.115 308.101 138.617C307.603 138.119 307.324 137.444 307.324 136.74V112.889H297.612Z" fill="#DE6105"/>
<path d="M394.581 96.0186H354.65V136.747H394.581V96.0186Z" fill="white"/>
<path fill-rule="evenodd" clip-rule="evenodd" d="M354.65 112.889C353.946 112.889 353.271 112.609 352.773 112.111C352.275 111.613 351.995 110.938 351.995 110.234C351.995 109.53 352.275 108.855 352.773 108.357C353.271 107.859 353.946 107.579 354.65 107.579H394.588C395.293 107.579 395.968 107.859 396.466 108.357C396.964 108.855 397.243 109.53 397.243 110.234C397.243 110.938 396.964 111.613 396.466 112.111C395.968 112.609 395.293 112.889 394.588 112.889H384.877V136.74C384.877 137.444 384.597 138.119 384.099 138.617C383.601 139.115 382.926 139.395 382.222 139.395C381.518 139.395 380.843 139.115 380.345 138.617C379.847 138.119 379.567 137.444 379.567 136.74V112.889H369.698V136.74C369.698 137.444 369.418 138.119 368.92 138.617C368.422 139.115 367.747 139.395 367.043 139.395C366.339 139.395 365.663 139.115 365.165 138.617C364.668 138.119 364.388 137.444 364.388 136.74V112.889H354.65Z" fill="#F77917"/>
<path d="M337.524 150.183H297.592V190.911H337.524V150.183Z" fill="#E6E6E6"/>
<path fill-rule="evenodd" clip-rule="evenodd" d="M297.612 167.052C296.908 167.052 296.233 166.772 295.735 166.274C295.237 165.776 294.957 165.101 294.957 164.397C294.957 163.693 295.237 163.018 295.735 162.52C296.233 162.022 296.908 161.742 297.612 161.742H337.544C338.248 161.742 338.923 162.022 339.421 162.52C339.919 163.018 340.199 163.693 340.199 164.397C340.199 165.101 339.919 165.776 339.421 166.274C338.923 166.772 338.248 167.052 337.544 167.052H327.813V190.903C327.813 191.607 327.533 192.283 327.035 192.78C326.537 193.278 325.862 193.558 325.158 193.558C324.454 193.558 323.778 193.278 323.281 192.78C322.783 192.283 322.503 191.607 322.503 190.903V167.052H312.633V190.903C312.633 191.607 312.354 192.283 311.856 192.78C311.358 193.278 310.683 193.558 309.979 193.558C309.274 193.558 308.599 193.278 308.101 192.78C307.603 192.283 307.324 191.607 307.324 190.903V167.052H297.612Z" fill="#DE6105"/>
<path d="M394.581 150.183H354.65V190.911H394.581V150.183Z" fill="white"/>
<path fill-rule="evenodd" clip-rule="evenodd" d="M354.65 167.052C353.946 167.052 353.271 166.772 352.773 166.274C352.275 165.776 351.995 165.101 351.995 164.397C351.995 163.693 352.275 163.018 352.773 162.52C353.271 162.022 353.946 161.742 354.65 161.742H394.588C395.293 161.742 395.968 162.022 396.466 162.52C396.964 163.018 397.243 163.693 397.243 164.397C397.243 165.101 396.964 165.776 396.466 166.274C395.968 166.772 395.293 167.052 394.588 167.052H384.877V190.903C384.877 191.607 384.597 192.283 384.099 192.78C383.601 193.278 382.926 193.558 382.222 193.558C381.518 193.558 380.843 193.278 380.345 192.78C379.847 192.283 379.567 191.607 379.567 190.903V167.052H369.698V190.903C369.698 191.607 369.418 192.283 368.92 192.78C368.422 193.278 367.747 193.558 367.043 193.558C366.339 193.558 365.663 193.278 365.165 192.78C364.668 192.283 364.388 191.607 364.388 190.903V167.052H354.65Z" fill="#F77917"/>
<path fill-rule="evenodd" clip-rule="evenodd" d="M354.65 150.183H362.446L394.588 182.318V190.904H354.65V150.183Z" fill="#E6E6E6"/>
<path fill-rule="evenodd" clip-rule="evenodd" d="M354.65 167.052C353.946 167.052 353.271 166.772 352.773 166.274C352.275 165.776 351.995 165.101 351.995 164.397C351.995 163.693 352.275 163.018 352.773 162.52C353.271 162.022 353.946 161.742 354.65 161.742H374.014L379.317 167.052H369.671V190.903C369.671 191.607 369.392 192.283 368.894 192.78C368.396 193.278 367.721 193.558 367.016 193.558C366.312 193.558 365.637 193.278 365.139 192.78C364.641 192.283 364.362 191.607 364.362 190.903V167.052H354.65ZM384.877 172.605V190.903C384.877 191.607 384.597 192.283 384.099 192.78C383.601 193.278 382.926 193.558 382.222 193.558C381.518 193.558 380.843 193.278 380.345 192.78C379.847 192.283 379.567 191.607 379.567 190.903V167.295L384.877 172.605Z" fill="#DE6105"/>
<path d="M171.44 79.1895H37.7089V206.709H171.44V79.1895Z" fill="#F77917"/>
<path d="M94.5048 96.0186H54.5664V136.747H94.5048V96.0186Z" fill="white"/>
<path fill-rule="evenodd" clip-rule="evenodd" d="M54.565 112.889C53.8609 112.889 53.1856 112.609 52.6878 112.111C52.1899 111.613 51.9102 110.938 51.9102 110.234C51.9102 109.53 52.1899 108.855 52.6878 108.357C53.1856 107.859 53.8609 107.579 54.565 107.579H94.5034C95.2076 107.579 95.8829 107.859 96.3807 108.357C96.8786 108.855 97.1583 109.53 97.1583 110.234C97.1583 110.938 96.8786 111.613 96.3807 112.111C95.8829 112.609 95.2076 112.889 94.5034 112.889H84.7919V136.74C84.7919 137.444 84.5122 138.119 84.0143 138.617C83.5164 139.115 82.8411 139.395 82.137 139.395C81.4329 139.395 80.7576 139.115 80.2597 138.617C79.7618 138.119 79.4821 137.444 79.4821 136.74V112.889H69.6127V136.74C69.6127 137.444 69.333 138.119 68.8351 138.617C68.3372 139.115 67.6619 139.395 66.9578 139.395C66.2537 139.395 65.5784 139.115 65.0805 138.617C64.5826 138.119 64.3029 137.444 64.3029 136.74V112.889H54.565Z" fill="#F77917"/>
<path d="M151.57 96.0186H111.632V136.747H151.57V96.0186Z" fill="white"/>
<path fill-rule="evenodd" clip-rule="evenodd" d="M111.632 112.889C110.928 112.889 110.253 112.609 109.755 112.111C109.257 111.613 108.977 110.938 108.977 110.234C108.977 109.53 109.257 108.855 109.755 108.357C110.253 107.859 110.928 107.579 111.632 107.579H151.544C152.249 107.579 152.924 107.859 153.422 108.357C153.92 108.855 154.199 109.53 154.199 110.234C154.199 110.938 153.92 111.613 153.422 112.111C152.924 112.609 152.249 112.889 151.544 112.889H141.859V136.74C141.859 137.444 141.58 138.119 141.082 138.617C140.584 139.115 139.908 139.395 139.204 139.395C138.5 139.395 137.825 139.115 137.327 138.617C136.829 138.119 136.549 137.444 136.549 136.74V112.889H126.68V136.74C126.68 137.444 126.4 138.119 125.902 138.617C125.405 139.115 124.729 139.395 124.025 139.395C123.321 139.395 122.646 139.115 122.148 138.617C121.65 138.119 121.37 137.444 121.37 136.74V112.889H111.632Z" fill="#F77917"/>
<path d="M94.5048 150.183H54.5664V190.911H94.5048V150.183Z" fill="white"/>
<path fill-rule="evenodd" clip-rule="evenodd" d="M54.565 167.052C53.8609 167.052 53.1856 166.772 52.6878 166.274C52.1899 165.776 51.9102 165.101 51.9102 164.397C51.9102 163.693 52.1899 163.018 52.6878 162.52C53.1856 162.022 53.8609 161.742 54.565 161.742H94.5034C95.2076 161.742 95.8829 162.022 96.3807 162.52C96.8786 163.018 97.1583 163.693 97.1583 164.397C97.1583 165.101 96.8786 165.776 96.3807 166.274C95.8829 166.772 95.2076 167.052 94.5034 167.052H84.7919V190.903C84.7919 191.607 84.5122 192.283 84.0143 192.78C83.5164 193.278 82.8411 193.558 82.137 193.558C81.4329 193.558 80.7576 193.278 80.2597 192.78C79.7618 192.283 79.4821 191.607 79.4821 190.903V167.052H69.6127V190.903C69.6127 191.607 69.333 192.283 68.8351 192.78C68.3372 193.278 67.6619 193.558 66.9578 193.558C66.2537 193.558 65.5784 193.278 65.0805 192.78C64.5826 192.283 64.3029 191.607 64.3029 190.903V167.052H54.565Z" fill="#F77917"/>
<path d="M151.57 150.183H111.632V190.911H151.57V150.183Z" fill="white"/>
<path fill-rule="evenodd" clip-rule="evenodd" d="M111.632 167.052C110.928 167.052 110.253 166.772 109.755 166.274C109.257 165.776 108.977 165.101 108.977 164.397C108.977 163.693 109.257 163.018 109.755 162.52C110.253 162.022 110.928 161.742 111.632 161.742H151.544C152.249 161.742 152.924 162.022 153.422 162.52C153.92 163.018 154.199 163.693 154.199 164.397C154.199 165.101 153.92 165.776 153.422 166.274C152.924 166.772 152.249 167.052 151.544 167.052H141.859V190.903C141.859 191.607 141.58 192.283 141.082 192.78C140.584 193.278 139.908 193.558 139.204 193.558C138.5 193.558 137.825 193.278 137.327 192.78C136.829 192.283 136.549 191.607 136.549 190.903V167.052H126.68V190.903C126.68 191.607 126.4 192.283 125.902 192.78C125.405 193.278 124.729 193.558 124.025 193.558C123.321 193.558 122.646 193.278 122.148 192.78C121.65 192.283 121.37 191.607 121.37 190.903V167.052H111.632Z" fill="#F77917"/>
<path fill-rule="evenodd" clip-rule="evenodd" d="M277.707 79.1876H424.617L408.688 42.2363H261.778L277.707 57.9353V79.1876Z" fill="#1AA3BF"/>
<path fill-rule="evenodd" clip-rule="evenodd" d="M224.577 5.60156L171.446 57.936V206.708H277.707V57.936L224.577 5.60156Z" fill="#F77917"/>
<path d="M252.088 126.766H197.075V206.708H252.088V126.766Z" fill="#1AA3BF"/>
<path fill-rule="evenodd" clip-rule="evenodd" d="M224.577 79.2074C228.583 79.2074 232.498 78.0196 235.829 75.7943C239.159 73.569 241.755 70.406 243.288 66.7054C244.821 63.0048 245.222 58.9328 244.44 55.0043C243.659 51.0757 241.73 47.4672 238.898 44.6348C236.066 41.8025 232.457 39.8737 228.528 39.0923C224.6 38.3108 220.528 38.7119 216.827 40.2447C213.127 41.7776 209.964 44.3733 207.738 47.7038C205.513 51.0342 204.325 54.9498 204.325 58.9553C204.336 64.3233 206.473 69.4684 210.268 73.2642C214.064 77.0599 219.209 79.197 224.577 79.2074Z" fill="white"/>
<path fill-rule="evenodd" clip-rule="evenodd" d="M221.945 44.9732C221.945 44.2691 222.225 43.5938 222.723 43.096C223.221 42.5981 223.896 42.3184 224.6 42.3184C225.304 42.3184 225.98 42.5981 226.478 43.096C226.975 43.5938 227.255 44.2691 227.255 44.9732V56.2705H237.697C238.401 56.2705 239.076 56.5502 239.574 57.0481C240.072 57.546 240.352 58.2213 240.352 58.9254C240.352 59.6295 240.072 60.3048 239.574 60.8027C239.076 61.3005 238.401 61.5803 237.697 61.5803H224.577C223.879 61.5803 223.21 61.303 222.716 60.8094C222.223 60.3158 221.945 59.6464 221.945 58.9484V44.9732Z" fill="#1AA3BF"/>
<path fill-rule="evenodd" clip-rule="evenodd" d="M171.446 79.1876H24.5361L40.472 42.2363H187.382L171.446 57.9353V79.1876Z" fill="#1AA3BF"/>
<g style="mix-blend-mode:multiply" opacity="0.5">
<path fill-rule="evenodd" clip-rule="evenodd" d="M37.7089 79.1895H171.447V89.7103H48.085L37.7089 79.1895Z" fill="#F77917"/>
</g>
<path fill-rule="evenodd" clip-rule="evenodd" d="M291.46 79.1882L277.709 65.4434V79.1882H291.46Z" fill="#629C8A"/>
<g style="mix-blend-mode:multiply" opacity="0.5">
<path fill-rule="evenodd" clip-rule="evenodd" d="M224.577 12.3125L171.446 64.6469H185.836L231.775 19.3988L224.577 12.3125Z" fill="#F77917"/>
</g>
<path fill-rule="evenodd" clip-rule="evenodd" d="M290.86 63.5813C291.353 64.0742 291.743 64.6593 292.01 65.3032C292.276 65.9471 292.413 66.6372 292.413 67.334C292.413 68.0308 292.275 68.7207 292.008 69.3644C291.741 70.008 291.35 70.5928 290.857 71.0853C290.364 71.5779 289.779 71.9684 289.135 72.2348C288.491 72.5012 287.801 72.6381 287.104 72.6378C286.408 72.6375 285.718 72.5 285.074 72.233C284.43 71.9661 283.846 71.575 283.353 71.082L224.577 12.3127L165.801 71.082C165.309 71.575 164.724 71.9661 164.08 72.233C163.437 72.5 162.747 72.6375 162.05 72.6378C161.353 72.6381 160.663 72.5012 160.019 72.2348C159.375 71.9684 158.79 71.5779 158.297 71.0853C157.804 70.5928 157.413 70.008 157.146 69.3644C156.879 68.7207 156.742 68.0308 156.741 67.334C156.741 66.6372 156.878 65.9471 157.144 65.3032C157.411 64.6593 157.801 64.0742 158.294 63.5813L220.8 1.07467C221.797 0.0830576 223.145 -0.473633 224.551 -0.473633C225.956 -0.473633 227.305 0.0830576 228.301 1.07467L290.86 63.5813Z" fill="#FFD332"/>
<g style="mix-blend-mode:multiply" opacity="0.5">
<path fill-rule="evenodd" clip-rule="evenodd" d="M197.075 126.766H252.088V206.708L197.075 126.766Z" fill="#1AA3BF"/>
</g>
<path d="M250.252 95.1299H198.904V112.244H250.252V95.1299Z" fill="white"/>
</g>
<path d="M267.62 149.403C266.29 153.308 263.718 156.67 260.298 158.975C254.6 162.565 247.107 161.625 240.355 160.742C233.603 159.859 226.11 159.431 220.697 163.591C221.979 155.044 223.546 145.842 229.244 139.204C234.942 132.565 243.489 129.773 251.751 128.207C260.013 126.64 268.845 126.212 276.822 123.534C273.568 126.875 271.437 131.147 270.725 135.756C270.031 140.376 268.993 144.937 267.62 149.403Z" fill="#87BE00"/>
<path d="M241.096 151.455C234.702 154.221 228.595 157.609 222.862 161.568C232.435 148.549 252.691 147.58 262.748 134.959C261.125 139.422 257.963 143.16 253.831 145.5C249.742 147.803 245.485 149.794 241.096 151.455Z" fill="#ADD250"/>
<path d="M238.503 141.739C234.714 147.067 230.925 152.366 227.107 157.693C232.479 153.696 236.464 148.117 238.503 141.739Z" fill="#ADD250"/>
<path d="M249.243 136.298C247.233 141.253 244.337 145.8 240.696 149.716C242.121 148.662 242.434 149.717 243.745 148.634C247.065 145.361 249.029 140.955 249.243 136.298Z" fill="#ADD250"/>
<path d="M243.717 148.634C243.579 148.627 243.441 148.655 243.317 148.714C243.193 148.774 243.085 148.864 243.004 148.976C242.748 149.46 243.489 149.859 244.03 149.916C246.937 150.414 249.897 150.529 252.833 150.258C255.788 149.979 258.517 148.558 260.44 146.298L243.717 148.634Z" fill="#ADD250"/>
<path d="M255.056 154.332C247.929 154.961 240.75 154.616 233.717 153.307C233.717 154.76 235.198 155.671 236.566 156.156C242.606 157.837 248.93 156.07 255.056 154.332Z" fill="#ADD250"/>
<path d="M219.045 140.629C216.731 136.694 213.592 133.307 209.844 130.701C206.097 128.094 201.83 126.33 197.336 125.529C188.342 123.962 179.119 124.311 170.271 126.555C172.361 127.362 174.25 128.617 175.805 130.231C177.36 131.845 178.544 133.78 179.273 135.899C180.718 140.135 181.777 144.492 182.436 148.919C183.074 153.37 184.872 157.576 187.649 161.113C189.896 163.354 192.623 165.057 195.623 166.094C198.623 167.13 201.819 167.472 204.971 167.095C211.262 166.287 217.392 164.519 223.147 161.853C222.834 154.589 222.435 147.039 219.045 140.629Z" fill="#87BE00"/>
<path d="M201.295 145.471C197.392 140.657 194.172 134.56 188.332 132.537C194.03 137.551 197.363 144.446 201.95 150.4C206.537 156.355 213.147 161.796 220.668 161.283C213.422 157.059 206.885 151.724 201.295 145.471Z" fill="#ADD250"/>
<path d="M207.735 138.35C207.28 141.605 207.165 144.899 207.393 148.179C207.656 151.486 208.974 154.622 211.153 157.124C210.977 154.872 210.644 152.635 210.156 150.429C209.359 146.412 208.532 142.367 207.735 138.35Z" fill="#ADD250"/>
<path d="M198.931 146.297C199.33 147.152 200.783 146.696 201.068 145.785C201.353 144.873 199.302 133.306 197.678 132.252C198.105 136.953 198.504 141.54 198.931 146.297Z" fill="#ADD250"/>
<path d="M200.041 147.978C200.526 147.978 201.095 147.779 201.323 147.352C201.431 147.092 201.442 146.802 201.353 146.535C201.264 146.268 201.081 146.042 200.839 145.899C200.366 145.594 199.802 145.463 199.244 145.528C195.427 145.972 191.561 145.691 187.848 144.702C191.336 147.329 195.706 148.503 200.041 147.978Z" fill="#ADD250"/>
<path d="M192.349 153.335C197.52 156.324 203.659 157.162 209.442 155.671L208.901 154.047L192.349 153.335Z" fill="#ADD250"/>
<path d="M227.079 210.998C230.127 209.944 230.697 205.984 230.754 202.764C231.092 194.837 230.845 186.895 230.013 179.004C229.175 171.076 226.555 163.44 222.35 156.668C221.496 157.545 220.837 158.592 220.415 159.74C219.993 160.889 219.817 162.114 219.899 163.335C220.079 165.777 220.519 168.193 221.21 170.542C224.08 182.805 223.509 195.621 219.558 207.579C221.609 209.744 224.344 211.91 227.079 210.998Z" fill="#87BE00"/>
</g>
<defs>
<clipPath id="clip0_584_5693">
<rect width="450" height="204.73" fill="white"/>
</clipPath>
<clipPath id="clip1_584_5693">
<rect width="449.732" height="233.011" fill="white" transform="translate(-0.289001 -26.3037)"/>
</clipPath>
</defs>
</svg>
