<svg id="圖層_1" data-name="圖層 1" xmlns="http://www.w3.org/2000/svg" viewBox="0 0 3454.13 1886.42"><defs><style>.cls-1{fill:#1b4a4d;}.cls-2{fill:#ffd332;}.cls-3,.cls-35,.cls-36{fill:#fff;}.cls-4{fill:#40ada2;}.cls-5{fill:#087e72;}.cls-6{fill:#12483a;}.cls-7{fill:#004e42;}.cls-8{fill:#091a4c;}.cls-9{fill:#317170;}.cls-10{fill:#cb81c0;}.cls-11{fill:#fc7638;}.cls-12{fill:#d3380f;}.cls-13{fill:#fb593a;}.cls-14{fill:#f9803d;}.cls-15{fill:#f5b472;}.cls-16{fill:#fc6238;}.cls-17{fill:#9b2421;}.cls-18{fill:#fbc1cd;}.cls-19{fill:#ff970b;}.cls-20{fill:#f492a9;}.cls-21{fill:#eacab5;}.cls-22{fill:#a82005;}.cls-23{fill:#b9b9b9;}.cls-24{fill:#939393;opacity:0.69;}.cls-25,.cls-28,.cls-29,.cls-30,.cls-31,.cls-33,.cls-34{fill:none;}.cls-25{stroke:#c9c9c9;stroke-width:1.71px;}.cls-25,.cls-28,.cls-29,.cls-30,.cls-33,.cls-34{stroke-miterlimit:10;}.cls-26{fill:#c9c9c9;}.cls-27{fill:#b5300d;}.cls-28,.cls-29{stroke:#ef7f6a;}.cls-28,.cls-30{stroke-width:3.41px;}.cls-29{stroke-width:2.56px;}.cls-30{stroke:#99201a;}.cls-31{stroke:#51443d;stroke-linecap:round;stroke-linejoin:round;stroke-width:8px;}.cls-32{fill:#51443d;}.cls-33,.cls-34{stroke:#f5b472;}.cls-33{stroke-width:10.54px;}.cls-34{stroke-width:6.45px;}.cls-35{opacity:0.48;}.cls-36{opacity:0.68;}.cls-37{fill:#f3c7a6;}</style></defs><path class="cls-1" d="M1063.91,806.2c-162.15-89.73-324.3,89.73-486.44,0V716.47c162.14,89.73,324.29-89.73,486.44,0a380.16,380.16,0,0,0-33.62,29.94C1041.5,765.18,1052.7,785.05,1063.91,806.2Z"/><path class="cls-2" d="M653.63,786.27A68.7,68.7,0,0,0,641.39,798a67.3,67.3,0,0,0-8.17-14.85,67.34,67.34,0,0,0,12.23-11.73A67.7,67.7,0,0,0,653.63,786.27Z"/><path class="cls-2" d="M675.32,767.77c-1.44,3.67-3.29,8.26-4.9,11.79,3.32,3.81,4.05,7,4,9.8,0,2.38-.61,4.3-1.9,5.12a5.41,5.41,0,0,1-2.39.83,26.67,26.67,0,0,1-3.22,0,6.9,6.9,0,0,0-.77-3c1.1.11,2,.13,2.77.14a3.07,3.07,0,0,0,1.5-.41c.71-.47,1-1.69,1-3,0-2.47-.72-5.52-4-9.1,1.38-3.23,2.92-7.38,4-10.44l-6.47-.13-.69,35.37-3.08-.06.75-38.32,10.82.21.49-.12Zm9.18,7.58c-.09,2.28-.26,4.48-.48,6.63l12.89.25,0,1.5c-.79,13.54-1.33,18.41-2.72,19.93a3.63,3.63,0,0,1-3,1.43,45,45,0,0,1-6-.11,8.07,8.07,0,0,0-.91-3.28c2.37.27,4.66.36,5.54.37a1.81,1.81,0,0,0,1.64-.54c.94-.95,1.51-5.16,2.17-16.37l-9.9-.19c-1.18,8.51-4,15.63-11.65,19.75a10.22,10.22,0,0,0-2.16-2.46c9.83-5,10.91-15.28,11.4-27l-6.95-.13.06-3.08,25.29.49-.06,3.08Zm3-10.33c.71,2,1.67,4.78,2,6.38l-3.14.9a60.81,60.81,0,0,0-1.9-6.64Z"/><path class="cls-2" d="M712.4,780.44a56.16,56.16,0,0,0-8.23-7.71,83.81,83.81,0,0,0,5.53-8.67l3.39.61c-1.4,2.39-3.37,5.19-5.08,7.56a56.08,56.08,0,0,1,7.29,6.54Zm12.19-1.4c0,.75,0,1.45,0,2.21,3,11,8.25,16.12,21,16.07a14.48,14.48,0,0,0-1.52,3.28c-10.72-.37-16.38-4-20-11.77-1.26,6.93-5.25,12.1-16.32,15.94a9.93,9.93,0,0,0-2.18-2.71c14.9-4.78,15.83-11.89,15.39-22.61Zm-14.44,3.79c2.15,2.81,4.9,6.56,6.23,8.75l-2.89,1.85c-1.29-2.29-3.92-6.18-6-9Zm14.68-4.35a54,54,0,0,0-8.46-7.46,67.2,67.2,0,0,0,5.74-8.44l3.39.62c-1.49,2.35-3.48,5-5.2,7.31a56.3,56.3,0,0,1,7.34,6.26Zm13-.84a55.16,55.16,0,0,0-9.33-7.71,79.13,79.13,0,0,0,6.3-8.86l3.4.66c-1.57,2.41-3.8,5.29-5.69,7.68a57.75,57.75,0,0,1,8.13,6.48Zm-5.4,12a55.72,55.72,0,0,0,4.65-9.73l3.53.6a75,75,0,0,1-5.23,9.75Z"/><path class="cls-2" d="M781.44,762c.65,7.09.44,13.08-1,18.29a21.73,21.73,0,0,0,10.3,6.35,10.67,10.67,0,0,0-1.56,3.24,24,24,0,0,1-9.93-6.13,29.37,29.37,0,0,1-7.92,10.74,14.06,14.06,0,0,0-2.62-2.4A24.78,24.78,0,0,0,776.73,781a57.23,57.23,0,0,1-6.8-10.88,31.38,31.38,0,0,1-1.62,5.74,17.25,17.25,0,0,0-2.8-1.44,35.16,35.16,0,0,1-5.07,7.23l.42,1.7c2.65-1,5.38-2.09,8.1-3.16l.73,2.76c-2.73,1.08-5.46,2.16-8.13,3.27l1.61,6.54c.4,1.62.24,2.47-.84,3.24s-2.87,1.2-5.57,1.86a12.83,12.83,0,0,0-1.7-2.52c2.15-.44,3.94-.93,4.49-1.06s.69-.35.57-.82l-1.5-6.11c-3.06,1.2-5.86,2.34-8.22,3.24l-1.1-2.81c2.37-.9,5.35-2,8.63-3.25l-.72-2.95a28.16,28.16,0,0,0,3.93-5l-6.66,1.64a47.81,47.81,0,0,1-4.31,4.77,31,31,0,0,0-2.87-1.88,37.74,37.74,0,0,0,7.66-9l-9,2.22-.7-2.83,7.4-1.81-1-4.23-5.6,1.37-.67-2.73,5.6-1.38-1.11-4.48,2.95-.73,1.1,4.49,4.4-1.08.64,2.61a42.74,42.74,0,0,0,1.55-6.82l3.16.13a48.94,48.94,0,0,1-3,10.89l5.17-1.27.69,2.82-7.44,1.82c-.72,1.31-1.44,2.62-2.26,3.87l6.23-1.53.56-.32,1.77.74c2.16-5.24,2.67-12.57,2.16-20l3.29-.26c.16,2.68.21,5.29.11,7.81l12.48-3.06.73,3ZM755.59,769l1.29-.32a44.39,44.39,0,0,0,2-5l-4.32,1.06Zm22.2,8.27a50.11,50.11,0,0,0,.4-14.41l-7.48,1.83A60.14,60.14,0,0,0,777.79,777.22Z"/><path class="cls-2" d="M823.77,745.44l-11.15,3.25a65,65,0,0,1,11.68,5.16l-2.13,2.59c-1-.66-2.34-1.42-3.8-2.18-21.3,7.42-23.44,8.09-24.73,9-.35-.58-1.21-1.93-1.79-2.68.92-.45,1.78-1.58,2.9-3.23a49.87,49.87,0,0,0,2.75-4.25l-10.6,3.1-.83-2.83,13.43-3.92c.93-1.83,1.86-3.85,2.63-5.77l3.5.4c-.65,1.38-1.33,2.82-2,4.17l19.34-5.65Zm3.79,29.28c.56,1.9.29,2.85-1,3.69s-3.77,1.52-7.45,2.59a11,11,0,0,0-1.67-2.44c2.64-.68,5.47-1.51,6.09-1.74s.94-.55.77-1.14l-1.58-5.4c-6.28,3.3-12.79,6.76-17.71,9.21L803.14,777c4.56-2.11,11.89-5.58,18.86-9l-2.26-7.73-21,6.13,1.44,4.94c1.3,4.43,2.34,10.64-.61,16a8.92,8.92,0,0,0-3-1.22c2.72-4.78,1.75-10,.6-13.93l-2.2-7.51,27.28-8Zm-12.63-22c-1.71-.69-3.48-1.41-5.15-1.93l1.45-1.66-9.63,2.82c-1.4,2.42-2.89,4.69-4.38,6.82Zm-13.27,14.66a78.33,78.33,0,0,1,16.54-.67l-.29,2.61a76.8,76.8,0,0,0-16.67.38Z"/><path class="cls-2" d="M841.75,737l4.43-1.3.88,3L842.63,740l1.16,4-3.08.91-1.16-4-10.09,3-.88-3,10.09-3-1.24-4.22,3.08-.91Zm2.27,8a46.65,46.65,0,0,1-1.72,7l6,20.4-3.08.9L840.4,757a40.33,40.33,0,0,1-3.53,6.4,18.94,18.94,0,0,0-3.18-1.45,39.53,39.53,0,0,0,7-16.91Zm9.29-8.18-4.69,1.38-.87-3,4.68-1.37-1.23-4.23,3.08-.9,1.24,4.22,9.88-2.89.88,3L856.39,736l1.23,4.18-3.08.91Zm16.56,25.37c1.94-.57,2-1.72.63-7.25a7.91,7.91,0,0,0,3.25.47c1.38,6.43,1,8.55-2.85,9.69l-7.77,2.27c-4.18,1.23-5.67.52-6.84-3.49l-6.2-21.16,3.08-.9,2.07,7,14.35-4.21.88,3-14.36,4.21,3.27,11.14c.51,1.74,1,1.95,3.14,1.33Z"/><path class="cls-2" d="M909.15,721.29a33.52,33.52,0,0,1-4,12.75,29.38,29.38,0,0,0,11.12,4.34,12.64,12.64,0,0,0-1.45,3l-1.51-.36,2.9,14.23-3.06.62-.29-1.42-10.78,2.19.31,1.55-3,.61-2.93-14.4c-.77.65-1.55,1.21-2.34,1.78a8.65,8.65,0,0,0-2-1.84l-4.52.92,1.57,7.72c1.76-.81,3.57-1.63,5.37-2.49l.89,2.83c-5.57,2.61-11.39,5.33-15.69,7.37l-1.24-3,2.1-.92-3-14.71,2.72-.55,2.88,14.14,3.16-1.45-3.55-17.42-6,1.23-2.67-13.15,13.92-2.84,2.33,11.43a32,32,0,0,0,5.11-14.83l3.21.11c-.18,1.34-.4,2.69-.64,4l8.33-1.7.53-.24Zm-30,13.39,8.1-1.65-1.53-7.55-8.11,1.65Zm13.68,8.75a31.62,31.62,0,0,0,8.42-8.72,39.69,39.69,0,0,1-5.17-5.1,31.32,31.32,0,0,1-2.91,5.76,18.5,18.5,0,0,0-2.63-1.44l.26,1.29-5,1,1.27,6.21,5.3-1.08Zm4.54-17.63-.27.91a35.6,35.6,0,0,0,5.59,5.6,28.89,28.89,0,0,0,3-8.19Zm13.74,14.54a32.8,32.8,0,0,1-7.42-3.79,35.26,35.26,0,0,1-5.43,6.41Zm1.22,11.29-1.69-8.28-10.78,2.2,1.69,8.28Z"/><path class="cls-2" d="M937.75,737.51c-3,6.49-8.43,13.09-13.42,16.65a13.4,13.4,0,0,0-2.44-2.62,38.8,38.8,0,0,0,13-15.06ZM943.4,734l.16,20.11-3.39,0L940,734.06l-17.51.14,0-3.21,17.51-.14L939.85,714l3.39,0,.14,16.81,17.59-.14,0,3.21ZM931,728.19a43.39,43.39,0,0,0-6.07-10.25l2.94-1.25a44.23,44.23,0,0,1,6.29,10.07Zm17.22,8.09c5.23,4.71,11.14,11.27,13.68,15.69l-2.76,1.91c-2.45-4.46-8.18-11.19-13.45-16Zm10.64-18.83a97.2,97.2,0,0,1-7.05,10.93L949,727.12a63.41,63.41,0,0,0,6.33-11Z"/><path class="cls-2" d="M990.11,741.86a68.55,68.55,0,0,0-12.47,11.48,67.9,67.9,0,0,0-7.88-15,68,68,0,0,0,12.47-11.49A66.94,66.94,0,0,0,990.11,741.86Z"/><path class="cls-3" d="M61.44,1210.85c25.77,32.4,43.38,63.29,58.74,91.78,15.15,28.64,27.85,55.24,39.18,82.4,6,13.46,11,27.28,16.64,41.28,5.05,14.21,10.7,28.59,15.52,44,10.18,30.7,20.23,64.63,28,105.09.61,2.88-2.24,3.4-2.85.53-7.69-40.25-17.71-74.09-27.86-104.69-4.8-15.4-10.44-29.75-15.47-43.92-5.59-14-10.66-27.75-16.6-41.17-11.3-27.1-24-53.63-39.07-82.18-15.3-28.39-32.89-59.2-58.45-91.34C57.33,1210.4,59.57,1208.55,61.44,1210.85Z"/><path class="cls-3" d="M192.86,1479.64a136.38,136.38,0,0,0-20.52-18.3,115.65,115.65,0,0,0-22-12.17c-12.19-4.92-12.86,19.27-.75,24.5C164.25,1480.18,179.27,1482.66,192.86,1479.64Z"/><path class="cls-3" d="M182.64,1441.66l-6.38-5.09c-3.92-3.11-9.43-7.29-15.79-11.56-12.6-8.64-27.72-17.88-38.74-21.3-11.38-3.53-11.08,17.53-.1,22.38,10.13,4.4,25.54,8,38.21,10.89S182.64,1441.66,182.64,1441.66Z"/><path class="cls-3" d="M106.19,1378c18,8.1,36.27,12.17,56.3,15.34a337.34,337.34,0,0,0-28.62-21.4,184.12,184.12,0,0,0-27.22-14.67C95.73,1352.67,95.24,1373,106.19,1378Z"/><path class="cls-3" d="M81.38,1335c19.79,9,40.81,13.18,62.78,17-22.25-18.15-42.76-31.32-62.91-39C69.19,1308.5,69.34,1329.87,81.38,1335Z"/><path class="cls-3" d="M70.55,1293.29c16,6.78,31.93,10.24,51,14.08-19-15.66-35.11-26-50.93-32.4-5.32-2-7.81,1.51-7.74,6S65.36,1291,70.55,1293.29Z"/><path class="cls-3" d="M27.16,1185.52c7.14,5.47,13.38,12.31,20.33,18.11,6.43,6.39,13.28,12.25,20,17.91a168.71,168.71,0,0,0-14.35-23.67c-6-7.25-12-14.69-19.71-20.48C25,1170.54,19.71,1179.18,27.16,1185.52Z"/><path class="cls-3" d="M103.36,1274.75c-14.08-10.42-28-21.25-41.85-27.93-9.42-4.12-9.94,10-1.08,15.08,8,4.47,19,7.31,27.53,9.6S103.36,1274.75,103.36,1274.75Z"/><path class="cls-3" d="M81.63,1238.06c-11-6.5-20.89-14.17-31.43-17.94-6.87-2.6-6.73,7.8.07,10.69,5.89,2.89,13.67,4.61,20.06,5.72S81.63,1238.06,81.63,1238.06Z"/><path class="cls-3" d="M196.85,1478.34a180.05,180.05,0,0,1,5.1-27.48,137.52,137.52,0,0,1,8.54-24.2c5.7-12.5,22.81,7.33,17,19.81C220.1,1461.7,209.59,1472.76,196.85,1478.34Z"/><path class="cls-3" d="M181.19,1442.2s2.38-12.22,5.36-27.49c3-15.1,7.23-33.25,11.7-44,4.74-11.38,21.28,5,16.75,17.2-4,11-12.16,24.69-19.68,35.51S181.19,1442.2,181.19,1442.2Z"/><path class="cls-3" d="M188.38,1339.71c-4.53,20-14.42,37-25.6,53.47.8-12.77,2-24.83,3.29-36a238.86,238.86,0,0,1,5.43-31.5C174.49,1313.41,191.18,1327.35,188.38,1339.71Z"/><path class="cls-3" d="M167.36,1289.7c-3.39,23.21-12.05,42.82-23.33,62.41.2-28.81.56-53.68,3.92-76.16C150,1262.27,169.09,1275.75,167.36,1289.7Z"/><path class="cls-3" d="M135.21,1254.88c-.56,18.3-6.51,34.54-13.45,52.35-2.5-24.5-4.37-44-3.36-62.07.17-5.92,4.51-6.63,8.82-4.25C131.38,1243.33,135.45,1248.83,135.21,1254.88Z"/><path class="cls-3" d="M103.23,1274.83c-2.08-17.54-6.64-34.86-8.46-51.12-1.62-10.88,13.62-5.79,14.92,5.54,1.23,9.94.07,21.26-2.12,30.25A142.2,142.2,0,0,1,103.23,1274.83Z"/><path class="cls-3" d="M79.61,1239.44c-3-12.39-5.84-24.49-8.59-36-1.57-7.75,9.28-4.74,11.12,3.17,1.28,7.06.71,15.36-.25,21.8A96.67,96.67,0,0,1,79.61,1239.44Z"/><path class="cls-4" d="M223.57,1442.85a14.68,14.68,0,0,1-1.29-5.12c-.22-4.29,2.48-9.28,7.56-11.77,3.35-1.63,7.5-2,10.41-4.18a7.91,7.91,0,0,0,1.33-11.31c-2.57-3.28-6.87-5.19-10.85-7.13a134.67,134.67,0,0,1-28.93-18.4c-2.62-2.2-5.05-4.64-5.77-7.78s1.14-7.36,5.06-9.33c2.2-1.11,4.74-1.35,6.9-2.53a7.38,7.38,0,0,0,2.54-10.91c-2.37-3.13-6.82-4.49-10.78-6-6.58-2.61-13-6.26-14.13-12.59-.63-3.25.91-7.44,3.77-10.56,3.27-3.59,7.61-2.39,10.16-5.51a5.66,5.66,0,0,0,.94-5.52,12,12,0,0,0-3.18-4.28c-4.22-4.2-9.26-7.69-12.71-12.38-3.29-4.25-5-11.16-5.41-18.47s.77-15.11,4-21.13c4-7.5,13.18-13.71,20.91-11.47,6.91,1.93,9.89,9.37,11.24,16.15,1.2,6.91,1.71,14.21,5.95,19.4,3.51,4.09,11.57,6.27,17.05,2.24,5-3.71,1.66-7.49,4.19-11.89,4.37-7.68,18.67-7.24,23.21-.9a20.77,20.77,0,0,1,3.74,11.46,54.64,54.64,0,0,1-.89,12.56c-.76,4.68-3.72,14.7-1.3,18.85,2.31,3.83,7.91-.84,10.76-1.75a17.67,17.67,0,0,1,13.82,1.21,20,20,0,0,1,8.17,9.31,26.46,26.46,0,0,1,1.91,12.53c-.87,8.49-5.24,16.24-10.56,23-2.8,3.57-6,7.13-6.92,11.29s1.07,9.15,5.62,9.74c3.94.52,7.69-2.45,11.71-2.67,6.72-.38,10.46,6.74,12,12.87a93.29,93.29,0,0,1,2.42,16,122.68,122.68,0,0,1-.34,17,115.54,115.54,0,0,1-8,33.38c-3.41,8.32-9.05,16.47-16.47,21s-16.28,5.43-26.06,1.93c-8.41-3-15.61-8.18-22-13.64a123.75,123.75,0,0,1-15.82-16.5A30,30,0,0,1,223.57,1442.85Z"/><path class="cls-5" d="M275.72,1519.73l-2-.53c4.36-20.43,3.89-40.5,1.48-60.42a473.23,473.23,0,0,0-11.61-59c-5.87-22.67-14-45.34-25.2-66.34A209,209,0,0,0,219,1303.59a172.24,172.24,0,0,0-24.47-25.36l1.48-1.51a174.28,174.28,0,0,1,24.68,25.59,210.06,210.06,0,0,1,19.52,30.07c11.35,21.15,19.48,44,25.4,66.83a475,475,0,0,1,11.67,59.28C279.69,1478.57,280.2,1499,275.72,1519.73Z"/><path class="cls-5" d="M251.27,1358.69l-.22,1.85c-13,.23-25.06-3.7-33.47-10.64l1.56-1.38C227.22,1355.2,238.74,1359,251.27,1358.69Z"/><path class="cls-5" d="M249.52,1318.73a28.31,28.31,0,0,1-6.19,22.33l-1.64-.94a26.57,26.57,0,0,0,5.79-20.89Z"/><path class="cls-6" d="M290.79,1407.93a47.09,47.09,0,0,1-6.13,13.11,22.13,22.13,0,0,1-12.67,8.83l-.44-1.74a20.05,20.05,0,0,0,11.35-8c2.79-3.83,4.44-8.29,5.87-12.63Z"/><path class="cls-6" d="M275.42,1452.24l-1,1.62c-10.7-4.21-19.44-10.51-25-18.49l1.87-.93C256.68,1442.15,265.1,1448.23,275.42,1452.24Z"/><path class="cls-5" d="M151.91,1465.79c-8.89-8-23.51-12.07-27-22.54-5-14.29,13.08-31.87,17.55-49,4.37-16.2-5.17-32.14-22.11-36.63-11.17-3-25.46-1.55-33.68-7.64-4.56-3.48-6.45-8.61-7.78-14.29s-1.66-12-3.87-17.44A27.63,27.63,0,0,0,60.54,1303a31.12,31.12,0,0,0-23.33-.59c-8.32,3-15.92,10-20.88,17.34S9,1334.88,11.82,1340c2.16,3.91,6.28,6.27,10.94,8.29s9.64,4,12.68,7.63c8.82,9.89,1.25,27.43-5.58,41.82-6.93,14.75-12.65,31.22-1.07,38.34,8.13,4.9,22.38,3.76,30.84,9,10.56,6.79,7.9,21,6.85,33-1.14,14.71,1.44,29,12.42,38.87,5.93,5.45,16.57,10,28.11,11.55s24.38,0,34.56-7.91C161.62,1505.3,167.33,1479.6,151.91,1465.79Z"/><path class="cls-7" d="M129.14,1563.71l2.51-.25c.18-19-4.15-38.73-10-57.38s-13.65-36.91-21.76-54.44q-14.82-30.72-29.88-62a612.31,612.31,0,0,1-26.27-64.8L41.51,1326a604.7,604.7,0,0,0,26.2,64.74q15.08,31.27,29.86,61.91c8.07,17.45,15.74,35.51,21.65,54.17S129.35,1545,129.14,1563.71Z"/><path class="cls-7" d="M80.81,1414.84l1.62,1c11.15-10.26,17.64-23.09,17.75-35.15l-2.41.54C97.71,1392.7,91.42,1405,80.81,1414.84Z"/><path class="cls-7" d="M49,1392.31c5.46,4.56,14.17,6.59,23.75,5.75l.49-1.92c-9,.83-17.15-1.11-22.29-5.39Z"/><path class="cls-7" d="M78.59,1475.55c4.25,2.08,8.51,4.33,13.78,5.51a32.41,32.41,0,0,0,17.95-1l-.57-1.64a29,29,0,0,1-16.14.84c-5-1.13-9.17-3.31-13.3-5.34Z"/><path class="cls-7" d="M118.47,1500.5l1.79.91c9.53-9,15.44-20,16.2-30.53l-2.45.33C133.3,1481.34,127.59,1491.85,118.47,1500.5Z"/><path class="cls-8" d="M207.58,1419c-8.17-15.61-18.91-30.11-29.43-44.13a269.34,269.34,0,0,0-37.46-41c14,6.78,27.94,13.76,41.17,21.82a44.06,44.06,0,0,1,2,21.66,44.94,44.94,0,0,0,6.89-16A179.4,179.4,0,0,1,214.38,1380c.89.83,1.78,1.7,2.64,2.57-1.7,3.47-3,7.24-4.28,10.56C209.16,1402.15,207.33,1409.69,207.58,1419Z"/><path class="cls-8" d="M205.32,1420.74c.51,1,1,2,1.53,3,8.51,17.26,16.74,35.64,22.58,54.6-8.78-9.24-20.55-16-32.2-20.6-8.46-3.36-17.41-5.21-26.28-7.09a72.47,72.47,0,0,0-10.52-1.47,131.94,131.94,0,0,1-3.47-26.68,68.26,68.26,0,0,1,21.89,7.42,69.9,69.9,0,0,0-22.23-20.24c-.06-4.6-.11-9.21-.23-13.8C174.78,1398.76,192.49,1407.36,205.32,1420.74Z"/><path class="cls-8" d="M194,1459.44c13.88,5,28.22,13.51,37.33,25.3l0,0c1,3.56,1.89,7.14,2.67,10.73-17.17-20.24-43.45-28.73-69.23-33.62a77.45,77.45,0,0,1-3.52-9.7c-.07-.23-.14-.46-.19-.69,3.88.47,7.8,1.52,11.61,2.33A159.91,159.91,0,0,1,194,1459.44Z"/><path class="cls-8" d="M176.07,1376.75c8.72,11.61,17.54,23.5,24.91,36.12A91.66,91.66,0,0,0,156.31,1393c0-1.24-.08-2.46-.14-3.69-.85-17.94-4.31-36.91-14.77-51.09A269.33,269.33,0,0,1,176.07,1376.75Z"/><path class="cls-8" d="M239,1502.07c-.35-.55-.74-1.09-1.13-1.62-5-26.89-16.25-53.06-28.05-77.13a1.09,1.09,0,0,0,.72-1.2c-.63-9,.21-16.81,3.72-25.2,1.53-3.62,2.83-8.22,4.75-12.33,20.18,21,34.06,49.34,31.07,78.16-.84,8.14-3,16.06-4.16,24.16-.85,6,.5,14.56-1.67,20.19a10.34,10.34,0,0,1-4.54,5.58q-.48-4.44-1.24-8.85A1.14,1.14,0,0,0,239,1502.07Z"/><path class="cls-8" d="M235.2,1501.5c.74,4.06,1.35,8.13,1.78,12.22-7,1.7-16.71-2.57-23.49-5.31-20.23-8.17-37.71-23.8-47.3-43.45C192.35,1470.07,219.19,1479.2,235.2,1501.5Z"/><path class="cls-9" d="M234,1495.49c-.78-3.59-1.69-7.17-2.67-10.73l0,0c-9.11-11.79-23.45-20.27-37.33-25.3a159.91,159.91,0,0,0-21.31-5.63c-3.81-.81-7.73-1.86-11.61-2.33-.22-.77-.43-1.55-.62-2.34a72.47,72.47,0,0,1,10.52,1.47c8.87,1.88,17.82,3.73,26.28,7.09,11.65,4.61,23.42,11.36,32.2,20.6-5.84-19-14.07-37.34-22.58-54.6-.49-1-1-2-1.53-3-12.83-13.38-30.54-22-48.93-24.9,0-.93,0-1.9-.08-2.85A91.66,91.66,0,0,1,201,1412.87c-7.37-12.62-16.19-24.51-24.91-36.12a269.33,269.33,0,0,0-34.67-38.54,52.23,52.23,0,0,0-6.12-7l5.41,2.63a269.34,269.34,0,0,1,37.46,41c10.52,14,21.26,28.52,29.43,44.13-.25-9.33,1.58-16.87,5.16-25.85,1.32-3.32,2.58-7.09,4.28-10.56.66.66,1.3,1.31,1.95,2-1.92,4.11-3.22,8.71-4.75,12.33-3.51,8.39-4.35,16.18-3.72,25.2a1.09,1.09,0,0,1-.72,1.2c11.8,24.07,23,50.24,28.05,77.13.39.53.78,1.07,1.13,1.62a1.14,1.14,0,0,1-.53,1.76q.76,4.41,1.24,8.85a9.45,9.45,0,0,1-2.69,1c-.43-4.09-1-8.16-1.78-12.22-16-22.3-42.85-31.43-69-36.54-.51-1-1-2-1.43-3.09C190.54,1466.76,216.82,1475.25,234,1495.49Z"/><path class="cls-10" d="M260.92,1153.28a95.77,95.77,0,0,0,2,27.87c2.24,9.06,5.72,17.84,9.35,26.48,7.37,17.27,16.2,33.94,22.93,51.57s11,36.38,10.05,55.32a123,123,0,0,1-15.35,54l-1.36-.76a121.41,121.41,0,0,0,15.16-53.36c1-18.7-3.18-37.27-9.95-54.7s-15.51-34.16-22.9-51.51c-3.66-8.7-7.14-17.47-9.44-26.73a97.77,97.77,0,0,1-2-28.32Z"/><path class="cls-10" d="M239.46,1214l1.84,2.63c1.12,1.58,2.67,3.61,4.28,5.77,3.24,4.24,6.8,8.6,8.06,10,8.93,9.81,18.22,17.71,27.3,25.7,4.64,4,9.15,8.13,13.63,12.45.65.65,1.33,1.27,2,1.88l1.16,1c.32.28.69.5.93,0a1.16,1.16,0,0,0,0-.78,11.4,11.4,0,0,0-1.85-3.13c-.72-1-1.48-2-2.24-2.93A309,309,0,0,0,269,1238C259.87,1229.1,250.12,1220.74,239.46,1214Z"/><path class="cls-10" d="M278.47,1225.22a125.81,125.81,0,0,1-27.36-27.77l-2.88-4.41-1.42-2.28-1.35-2.7c-.85-1.81-1.82-3.68-2.52-5.57s-1.38-3.8-2-5.75a98.59,98.59,0,0,1-4-23.38c2.9,5.64,5.14,11.81,7.78,18.3,1.18,3.21,2.69,6.51,4,9.74.68,1.62,1.58,3.23,2.34,4.82a50.19,50.19,0,0,0,2.4,4.54,132.22,132.22,0,0,0,23.86,29.86Z"/><path class="cls-10" d="M260.08,1168.3a7.15,7.15,0,0,1-.58-1.77l-.8-4a80.26,80.26,0,0,1-1.09-8.07,114.52,114.52,0,0,1-.1-16.36c.65-10.88,2.54-21.52,4.47-31.92,1.55-8.33,3.16-16.53,4.16-24.93,4.14,13.48,3.55,28.74.9,42.73-2,10.9-5.24,21.41-6.15,32.43a52.2,52.2,0,0,0-.25,6.12,24.41,24.41,0,0,1,0,5.54C260.46,1168.71,260.27,1168.63,260.08,1168.3Z"/><path class="cls-10" d="M271.26,1164.53c2.82-12.71,7.69-25.35,10.85-39.87-.52,2.36-3.75,5.92-4.93,7.9-1.59,2.67-3.06,5.33-4.48,8.07a96.09,96.09,0,0,0-7.11,17.53,62.86,62.86,0,0,0-2.68,18.87c0,5.14.36,10.84,2.55,15.78.4-2.45,1-4.88,1.43-7.28s1.2-4.7,1.56-7,.94-4.43,1.27-6.61.9-4.44,1.35-6.63Z"/><path class="cls-10" d="M267.57,1199.27c-2.85-5.19-6.37-9.61-9.8-14.48l-2.64-3.74-2.4-3.87a85.12,85.12,0,0,1-4.45-8.12c-5.51-11.21-8.36-24.7-5.9-36.77,3,8,6.17,16.23,8.91,24.87,2.15,6.76,4,13.75,6.61,20.55a148.54,148.54,0,0,0,9,19.33Z"/><path class="cls-10" d="M270.2,1204.73c4.59-2,6-8.48,7-14.17q.5-2.91,1-5.75a38.81,38.81,0,0,1,1.1-5.43c.83-3.2,1.93-6.36,3-9.43a193,193,0,0,1,8.48-19c-6.2,6.79-11.72,13.85-15.52,22.15-3.94,8-5.1,18.74-5.47,29.42Z"/><path class="cls-10" d="M279.06,1223.21c5.46-4.46,8.13-12.51,8.9-20.65s-.13-16.43-.68-24.1c-3.81,13.09-6.58,27.85-10,42.16Z"/><path class="cls-10" d="M293.64,1205.15c3.35-6.2,7.93-11.7,9.38-18.61.05,10.44-4.47,20.44-7.84,30.63-1.44,4.48-2.67,9.11-3.8,13.82-.32,1.4-2.17,12-3.7,10.53-1.36-1.31-.39-10.81-.29-12.58a66,66,0,0,1,1.78-12A50.65,50.65,0,0,1,293.64,1205.15Z"/><path class="cls-10" d="M297.49,1267.79a77.67,77.67,0,0,1-.22-31.29c1.94-9.76,5.68-18.32,9.9-26.32,1.5,13.32.55,27.49-4,39.06-2.57,6.61-6.26,13.17-5.25,21C297.78,1269.43,297.66,1268.6,297.49,1267.79Z"/><path class="cls-10" d="M304.14,1306.52c8.31-12.43,13.25-28.84,14.74-46s0-34.65-1.71-50.41c-2.1,12.62-3.75,26-6.26,39.34a74.06,74.06,0,0,0-1.81,13.8c0,2.75.21,5.66.49,8.49a64,64,0,0,1,.17,8.51c-.8,8.64-5.06,15.69-5.51,23.93Z"/><path class="cls-10" d="M243.52,1241.53c2.15,1.16,13.85,10,15.42,11,3.3,2.22,6.41,4.45,9.5,6.87a185,185,0,0,1,16.9,15.25c6.59,6.71,12.39,14.59,14.31,18.26,1,1.44,5.42,9,4,10.53-1.18,1.19-5.85-5.9-6.91-7a199.89,199.89,0,0,0-14.36-16.38c-6.26-6.32-13.15-12.1-15.78-14.6C260.65,1259.91,249.29,1249.21,243.52,1241.53Z"/><path class="cls-10" d="M275.15,1236.11c-13.34-11.13-27-24.09-35.47-44.2a115.14,115.14,0,0,0,10.66,13.55c3.63,4,7.31,7.72,11.25,11.7s8.8,9.56,12.85,13.26l5.94,5.42c1.08,1,7.16,7.1,7.16,7.1C287.76,1245.28,276.4,1237.11,275.15,1236.11Z"/><path class="cls-10" d="M278.89,1300.94a108.86,108.86,0,0,1,13.55,13.67c5.3,6.35,9.42,13.64,10.07,15.46a17.35,17.35,0,0,1-.08-2.82,44.14,44.14,0,0,0-2.19-7,57.44,57.44,0,0,0-3.18-7.11,88.91,88.91,0,0,0-6.59-9.37,50.07,50.07,0,0,0-3.33-4c-1.29-1.17-3.7-5.59-8-10.64a71.89,71.89,0,0,0-16.5-14.89,56.15,56.15,0,0,0-8.05-4c4,6.2,7.19,11.92,11.21,17.08A101.59,101.59,0,0,0,278.89,1300.94Z"/><path class="cls-10" d="M316.26,1315.93c7.63-5.57,14.34-15.48,16.43-27.12s3.2-21.26,4.69-32.17c-3.88,11.92-8.64,23.63-13.4,35.69-1.75,4.35-3.57,8.73-6.12,12.1-1.16,1.57-5.29,6.74-8.93,10.94s-6.65,7.69-4.54,7.73c.7,0,3.29-1.36,5.92-3S315.45,1316.52,316.26,1315.93Z"/><path class="cls-11" d="M40.86,1579.23a5.92,5.92,0,0,0-.5,5.26c1.22,3.34,4.68,5.36,7.91,6.94a120.51,120.51,0,0,0,13.41,5.48,75.93,75.93,0,0,0,14,3.06,158.36,158.36,0,0,0,20,.37A93.56,93.56,0,0,0,78,1586.71a76.5,76.5,0,0,0-26.7-10.09,17.48,17.48,0,0,0-5.64-.24A7.06,7.06,0,0,0,40.86,1579.23Z"/><path class="cls-11" d="M98.93,1550c-5.05,13.94-6.26,29.13-5.46,43.7A95.5,95.5,0,0,0,110,1571.46a57.48,57.48,0,0,0,6.84-22.66c.11-4,.94-12.44-3.78-13.86-3.5-1.07-6.81,1.55-9.27,5.08A45.76,45.76,0,0,0,98.93,1550Z"/><path class="cls-11" d="M15.83,1531.49c-2,4.13.05,9.48,2.82,13.24,8.21,11.45,20.38,18.54,33.08,22.17,9.75,2.88,19.87,3.94,30,4.55C71.45,1559,59,1547.84,45.43,1536.65c-5.71-4.51-12-9.47-19.7-9.83C21.86,1526.63,17.58,1528,15.83,1531.49Z"/><path class="cls-11" d="M4.3,1443.59c-2.16.77-3.44,2.83-4,5.32a22.57,22.57,0,0,0,.21,7.9,84.61,84.61,0,0,0,4,14.68,109,109,0,0,0,6.58,13.25,71.81,71.81,0,0,0,8.42,11.59,92.64,92.64,0,0,0,9.69,9.9,133.06,133.06,0,0,0,16.59,11.93,188.37,188.37,0,0,0,17.8,8.92,222.72,222.72,0,0,1-19-30.15c-2.07-4.26-4.45-8.57-6.47-13a136.44,136.44,0,0,0-6.82-13.25,105,105,0,0,0-8.24-13A77.13,77.13,0,0,0,12.2,1446.3C10,1444.42,7.11,1442.61,4.3,1443.59Z"/><path class="cls-11" d="M86.46,1455a94,94,0,0,0-11.78,12.73,100.06,100.06,0,0,0-8.56,15.43,100.37,100.37,0,0,0-4.89,17.33c-.78,5.94-1.6,12.2-1.14,18.3l6.48-6.48,6.64-6.35c4.38-4.18,8.55-8.27,12.42-12.36,2.94-2.93,5.7-5.9,8.14-8.83s4.5-5.85,6.58-8.68a34.84,34.84,0,0,0,4.43-8.4,20.62,20.62,0,0,0,2-8.27c-.17-3.17-1.25-7-6.08-8.47C95.48,1449.37,90.05,1452,86.46,1455Z"/><path class="cls-11" d="M101,1488.07c-18.15,16.86-27.9,42.38-27.25,68.13,4.49-5.1,9-10.21,13.33-15.33s8.1-10.25,11.8-15.45a93.17,93.17,0,0,0,6-9.92,82.45,82.45,0,0,0,4.57-9.7,59,59,0,0,0,2.45-9.16,23.08,23.08,0,0,0-.23-8.51,3.5,3.5,0,0,0-2.61-3.24C106.33,1484.16,103.09,1486.16,101,1488.07Z"/><path class="cls-12" d="M95.85,1599.55a.62.62,0,0,1,0,.46.82.82,0,0,1-.94.42c-13.66-3.56-26.81-7.23-39.31-14a.63.63,0,0,1-.21-.91.77.77,0,0,1,1-.27c12.4,6.7,25.46,10.44,39.12,13.94A.58.58,0,0,1,95.85,1599.55Z"/><path class="cls-12" d="M81.9,1570.32a.55.55,0,0,1,0,.54.79.79,0,0,1-1,.37c-18.78-6.93-36.71-17.29-52.1-32.58a.74.74,0,0,1,0-1,.72.72,0,0,1,1,0c15.25,15.18,33.05,25.51,51.72,32.41A.54.54,0,0,1,81.9,1570.32Z"/><path class="cls-12" d="M103.84,1497.19a.38.38,0,0,1-.1.35C91.53,1513,82.31,1532.37,76.22,1553a.81.81,0,0,1-.87.53.58.58,0,0,1-.5-.74c6.11-20.71,15.39-40.18,27.68-55.65a1,1,0,0,1,1-.28A.45.45,0,0,1,103.84,1497.19Z"/><path class="cls-12" d="M109.5,1549.15a.52.52,0,0,1,0,.33c-3.1,13.87-7.75,28.73-15.46,42.45a.79.79,0,0,1-.95.35.57.57,0,0,1-.27-.84c7.57-13.58,12.25-28.23,15.3-42a.84.84,0,0,1,.83-.59A.56.56,0,0,1,109.5,1549.15Z"/><path class="cls-12" d="M61.73,1524.79a.61.61,0,0,1-.15.59.78.78,0,0,1-1,.15,137.75,137.75,0,0,1-50.91-62.87.82.82,0,0,1,.38-1,.7.7,0,0,1,.95.41,136.79,136.79,0,0,0,50.5,62.45A.53.53,0,0,1,61.73,1524.79Z"/><path class="cls-12" d="M93.16,1468.9a.36.36,0,0,1,0,.22c-9,13.64-18.8,29.11-30.67,45.84a.81.81,0,0,1-1,.26.56.56,0,0,1-.23-.85c11.82-16.62,21.72-32,30.55-45.63a.87.87,0,0,1,1-.27C93,1468.55,93.15,1468.72,93.16,1468.9Z"/><path class="cls-12" d="M53,1461.1a1,1,0,0,1,.37.09c.61.28.17,1.11.16,1.56l0,2.62a42.89,42.89,0,0,0,.07,5.07s.3,4.22.74,10.57a102.79,102.79,0,0,0,1.38,10.76A119.74,119.74,0,0,0,57.91,1504c1,4.11,1.73,8.3,2.92,12.08s2.18,7.35,3.08,10.4l3.52,10,1.08,3,4.68,11.58c1.63,3.83,3.39,7.61,5.08,11.41l1.17,2.49c5.63,12.29,12.37,24.13,17.32,36.53,7.57,21.55,11.14,45.19,6.27,67.59a.43.43,0,0,1-.55.3.47.47,0,0,1-.39-.5c4.66-22.17,1-45.62-6.68-66.88-4.59-11.48-10.92-22.74-16.3-34.3l-1.21-2.51c-2-4.32-4-8.67-5.89-13-1.77-4.44-3.69-8.81-5.33-13.29l-.74-2.08L65,1534s-.34-1-.93-2.63-1.46-4.05-2.27-7-1.85-6.34-2.92-10c-.84-3.72-1.74-7.68-2.64-11.65s-1.34-8-2-11.77A92.24,92.24,0,0,1,53,1480.64c-.4-6.1-.67-10.16-.67-10.16-.26-2.62.08-5.25,0-7.87C52.32,1462.22,52.32,1461.08,53,1461.1Z"/><path class="cls-11" d="M54.68,1397.83c-4.57,1.63-7.55,7.45-9.63,12.85-1.55,3.55-2.12,7.4-2.93,11.15s-1.34,7.56-1.71,11.34c-.1,3.84-.06,7.66.09,11.44a62.41,62.41,0,0,0,1.18,11.24c.68,3.71,1.46,7.36,2.3,10.94a102.19,102.19,0,0,0,3.43,10.5c2.26,6.88,5.62,13.33,8.74,19.53,2.65-18.8,7.65-36.27,11.76-53.42.36-1.62.68-3.24,1-4.88s.79-3.22,1.07-4.85a49.27,49.27,0,0,0,1-9.86c-.17-3.39.06-6.66-.62-9.94a28.58,28.58,0,0,0-3.32-9.31C64.38,1400,59.61,1396.07,54.68,1397.83Z"/><path class="cls-12" d="M55.79,1490.7a.65.65,0,0,1-.51.7.71.71,0,0,1-.89-.4c-3.87-10.92-5.25-23.53-5.09-36.21a69.93,69.93,0,0,1,.67-9.48c.37-3.15.74-6.3,1.11-9.42,1.13-6.17,2.74-12.17,4.08-18,.49-2.09,1.34-4.06,2-6.1a.69.69,0,0,1,.89-.38.64.64,0,0,1,.48.82c-.65,2-1.5,4-2,6-1.32,5.76-2.92,11.7-4,17.81-.36,3.09-.73,6.2-1.09,9.31a68.74,68.74,0,0,0-.68,9.39c-.16,12.54,1.21,25,5,35.8Z"/><path class="cls-4" d="M1578.22,1326.51a466.4,466.4,0,0,0-51.79,72.46,467.83,467.83,0,0,0-54,139,435.07,435.07,0,0,0-9.34,88.9c0,2.42-2.79,2.45-2.73,0a438,438,0,0,1,9.39-89.45,470.3,470.3,0,0,1,54.29-139.76,469.5,469.5,0,0,1,52.09-72.9C1577.78,1322.9,1579.83,1324.71,1578.22,1326.51Z"/><path class="cls-4" d="M1469.56,1545.11c-1.18-3.9-2.61-7.75-4-11.48s-2.81-7.36-4.42-10.9a156.38,156.38,0,0,0-11-19.93c-3.28-5.11-8.46-3.32-11.9,1.24-3.29,4.59-4.86,11.88-1.35,16.94C1445.23,1533.32,1457,1541.68,1469.56,1545.11Z"/><path class="cls-4" d="M1479.07,1514.17s-3.35-10-8-22.68c-2.46-6.39-4.59-13.26-7.18-19.88a148.57,148.57,0,0,0-7.73-17.52c-2.57-4.85-7.53-3.81-11,0s-5.61,10.27-3.11,15.44c4.39,9.4,13.81,21,21.92,29.68S1479.07,1514.17,1479.07,1514.17Z"/><path class="cls-4" d="M1463.41,1427.1a101.38,101.38,0,0,0,11.38,24.38,159.35,159.35,0,0,0,16.2,21.41c-2.11-10.75-3.67-20.79-5.87-30.47a259.35,259.35,0,0,0-6.67-27.23C1475.19,1404.37,1460.27,1416.23,1463.41,1427.1Z"/><path class="cls-4" d="M1481.13,1383.93a121.25,121.25,0,0,0,9,28.74c4,8.95,9.4,17.63,15,26-.93-12.27-1.8-23.67-2.62-34.44-1.17-11-1.9-21.11-3.75-31.1-1.06-6-5.84-6.49-10.24-3.79S1480.21,1377.84,1481.13,1383.93Z"/><path class="cls-4" d="M1510.32,1355.76c.64,16,6.25,30.47,13.21,46.09,1.52-20.64,3-37.24,2.1-53-.2-5.14-4.11-6.18-8-4.53A12.23,12.23,0,0,0,1510.32,1355.76Z"/><path class="cls-4" d="M1597.2,1296c-11.24,11.06-20.66,23.72-26.76,37a322.11,322.11,0,0,0,33.76-30.32C1610,1296.5,1603.32,1289.79,1597.2,1296Z"/><path class="cls-4" d="M1539.66,1375.8c.43-3.68,1-7.37,1.54-11.06s1.43-7.23,2.12-10.84c1.5-7.13,2.58-14.44,3.55-21.22.6-4.58-2.37-6.22-5.75-5.48a10.14,10.14,0,0,0-7.69,8.72c-1.09,8.49.11,18.41,2.06,26.3A120,120,0,0,0,1539.66,1375.8Z"/><path class="cls-4" d="M1560.62,1347.87c2.32-10.18,5.38-20.66,7.14-30.27,1.23-6.47-8.46-5.12-9.73,1.64-1.08,6-.48,13.18.45,18.84A88.26,88.26,0,0,0,1560.62,1347.87Z"/><path class="cls-4" d="M1473.45,1545.83a96.51,96.51,0,0,1,7.8-8.92,103.89,103.89,0,0,1,8.72-7.52,82,82,0,0,1,18.57-11c5.42-2.23,8.89,1.56,9.82,6.33,1.09,4.82-.41,10.68-5.67,13.13C1499.7,1543.8,1486.6,1547.14,1473.45,1545.83Z"/><path class="cls-4" d="M1477.66,1513.81s8.25-7.15,18.68-14.63a153.62,153.62,0,0,1,17.15-10.6,82.35,82.35,0,0,1,16.27-7c5.13-1.35,8,2.22,8.6,6.54s-1.1,9.4-6,11.32c-9.1,3.4-22.43,6.75-33.91,9.53Z"/><path class="cls-4" d="M1541.72,1461.3a181,181,0,0,1-24.27,7c-8.37,1.83-17.33,3.18-26.18,4.69a212,212,0,0,1,24.58-17.55,130.43,130.43,0,0,1,24-11C1549.41,1441.43,1551.38,1457.9,1541.72,1461.3Z"/><path class="cls-4" d="M1561.42,1428.07a177.52,177.52,0,0,1-27.24,6.44c-9.51,1.55-19,2.88-29.13,4.09,4.92-3.62,9.52-7,14.28-10s9.48-5.64,14.05-8a123.17,123.17,0,0,1,27.19-10.53c5.36-1.38,8.18,2.48,8.41,6.92A10.85,10.85,0,0,1,1561.42,1428.07Z"/><path class="cls-4" d="M1569.61,1394.63c-14.19,4-28.61,5.41-45.85,7.35,16.87-11.93,31.28-19.1,45.43-22.74,4.75-1.11,7.06,2.14,7.06,5.86S1574.25,1393.29,1569.61,1394.63Z"/><path class="cls-4" d="M1539.54,1375.72l9.39-5.69c3.1-1.88,6.35-3.6,9.45-5.32,6.34-3.34,12.22-6.57,18.58-8.53,4.21-1.35,6.47,1.17,6.68,4.34a9.07,9.07,0,0,1-5.55,8.69c-7.08,2.92-16.89,4.22-24.68,5.22S1539.54,1375.72,1539.54,1375.72Z"/><path class="cls-4" d="M1558.79,1346.46c9.81-4.46,18.69-9.86,28-12.33,6.19-1.6,6.07,7.38.15,9.43-5.25,1.86-12.23,2.52-18,2.79S1558.79,1346.46,1558.79,1346.46Z"/><path class="cls-10" d="M1582.53,1468.83c-32.17,37.88-52.68,67-71.84,96.83-9.52,15-18.58,30.26-27.86,47.46-4.5,8.67-9.6,17.55-13.66,27.7a72.4,72.4,0,0,0-4.57,16.3,39.22,39.22,0,0,0,1.34,18c.55,1.7-1.28,2.44-1.87.61a41.09,41.09,0,0,1-1.42-18.91,74.21,74.21,0,0,1,4.68-16.74c4.15-10.36,9.25-19.22,13.76-27.91,9.3-17.24,18.39-32.56,27.93-47.58,19.2-29.94,39.77-59.1,72-97.07C1582.19,1466.19,1583.68,1467.48,1582.53,1468.83Z"/><path class="cls-10" d="M1479.24,1617.55a97.91,97.91,0,0,0-5.2-33.13c-2.85-8.32-15.57,1.48-12.52,9.86C1465.16,1604.38,1471.25,1612.48,1479.24,1617.55Z"/><path class="cls-10" d="M1492.22,1597.62s-.63-7.81-1.61-17.43-2.44-21.14-4.85-28.41c-2.46-7.59-14.09.47-12.09,8.41,1.87,7.22,6.45,16.66,10.6,24.18S1492.22,1597.62,1492.22,1597.62Z"/><path class="cls-10" d="M1494.13,1534.06c1.9,12.92,7.08,24.42,13.51,36,.4-16,.37-29.86-1.63-42.52C1504.81,1519.68,1493,1526.08,1494.13,1534.06Z"/><path class="cls-10" d="M1510.62,1505.93c.9,14.59,5.66,27.85,11.79,41.22,1.63-17.7,2.61-33.17,1.42-47.39C1523.17,1491.14,1510,1497.08,1510.62,1505.93Z"/><path class="cls-10" d="M1532.93,1488.25c-.17,11.38,2.78,22,6.51,33.92,2.88-14.86,4.77-26.79,4.74-38C1544.22,1476.71,1533,1480.67,1532.93,1488.25Z"/><path class="cls-10" d="M1595.81,1446.11a113.55,113.55,0,0,0-19,27.5,172.6,172.6,0,0,0,24.27-23C1605.2,1445.89,1600.05,1441.4,1595.81,1446.11Z"/><path class="cls-10" d="M1553,1504.16c2.12-10.64,5.47-21.07,6.87-30.93,1-6.65-8.53-4.78-9.75,1.94-1,6-.34,13.25.63,19A98.39,98.39,0,0,0,1553,1504.16Z"/><path class="cls-10" d="M1569.47,1484.47c1.76-7.57,4.36-15,5.48-22,.76-4.75-6-3.57-7,1.22-.85,4.21-.5,9.42.11,13.57A69.91,69.91,0,0,0,1569.47,1484.47Z"/><path class="cls-10" d="M1481.77,1618.86a75.7,75.7,0,0,1,30.24-13c8.4-1.44,7,13.37-1.24,15.06C1500.54,1622.92,1490.47,1622.47,1481.77,1618.86Z"/><path class="cls-10" d="M1491.3,1597.11s6.9-3.67,15.76-7.33,19.51-7.36,26.79-8.18c7.62-.78,6.32,12.24-1.38,13.73-7,1.4-17.23,1.75-25.81,1.84S1491.3,1597.11,1491.3,1597.11Z"/><path class="cls-10" d="M1545.66,1567.72c-12.2,2.85-24.64,2.91-37.84,2.43,14-7.59,26.62-12.82,38.79-15.24C1554.08,1553.47,1553.06,1566,1545.66,1567.72Z"/><path class="cls-10" d="M1564.4,1544.18c-13.58,3.18-27.37,3.33-42.07,2.92,15.69-8.38,29.66-14.13,43.26-16.65C1573.76,1529,1572.43,1542.26,1564.4,1544.18Z"/><path class="cls-10" d="M1573.52,1519.22c-10.66,2.67-21.39,2.86-33.92,3.06,13.19-7.43,24-12.21,34.71-14.56C1581.34,1506.24,1580.44,1517.44,1573.52,1519.22Z"/><path class="cls-10" d="M1552.88,1504.1c9.64-4.9,19-10.38,28.21-13.43,6.18-2,6.4,7.36.26,9.65-5.39,2.11-12.52,3-18.3,3.4S1552.88,1504.1,1552.88,1504.1Z"/><path class="cls-10" d="M1568.18,1483.42c7-3.3,13.84-7.05,20.53-9.13,4.46-1.4,4.47,5.39,0,7-4,1.4-9.09,1.91-13.22,2.12S1568.18,1483.42,1568.18,1483.42Z"/><path class="cls-8" d="M1588.55,1574c13.85-5.78,31.6-8.51,42.41,1.89,7,6.78,9,17.3,9,27.08a94.52,94.52,0,0,1-35.67,73.22c29.8-42.69,83.83-67.14,135.57-61.37-22,47.77-71.53,81.62-124,84.79a144.79,144.79,0,0,1,95.3,11.69,234.55,234.55,0,0,1-150.25,25.57c-16.66-2.78-33.91-7.9-45.43-20.25C1473.49,1671.64,1549,1590.52,1588.55,1574Z"/><path class="cls-13" d="M1402,1350c-1.14,7.07-2.1,14.52-1.17,22.08,1.15,11.63,5.68,24.09,13,36.05l.93,1.45,1.75,2.59c3.27,4.78,7.07,9.61,12.67,13.24,4.56,3,9,4.14,13.13,3.61.56-.08,1.15-.19,1.74-.33l.55-.15c5.36-1.57,8.5-5.16,10.87-8.38a63.5,63.5,0,0,0,6.86-11.76c.29-.63.62-1.26,1-1.89l3.2-6.18.61-1.24c.82-1.71,1.6-3.34,2.32-4.86l.59-1.29.51-1.18c.74-1.75,1.43-3.53,2-5.28l.07-.19.35-1,.5-1.32.08-.21c.29-.79.66-1.57,1-2.35a13.6,13.6,0,0,0,1.63-5,1.93,1.93,0,0,0-1-2.08c-1.08-.52-2.49-.26-4.4.12l-.18,0a63.78,63.78,0,0,0-9.8,2.7,27.21,27.21,0,0,0-3.39,1.54,29.87,29.87,0,0,1,4-4.72,81,81,0,0,1,9.27-7.4l1.56-1.1c2.62-1.86,5.53-3.68,7.31-5.91,1.5-1.87,1.56-4.1,1.65-6.27.06-.72.12-1.45.23-2.15.69-4.13,1-8.39,1.38-12.52a147.88,147.88,0,0,0-1-30.55c-.09-.58-.17-1.19-.26-1.8-.25-1.9-.56-3.83-.92-5.75l-.05-.31-.15-.77a175.51,175.51,0,0,0-12.32-38.1l-.55-1.19a1.83,1.83,0,0,0-1.15-1l-.18,0a3.71,3.71,0,0,0-2.93-1c-6.14.93-10.91,4.33-14.9,8a93.06,93.06,0,0,0-8.41,9.32c-.52.68-1.06,1.32-1.6,1.94-2.15,2.51-4.2,4.94-3.07,9a79.4,79.4,0,0,1,3.06,15c.14,1.87.3,3.71.33,5.46a114.86,114.86,0,0,0-7.94-8.81l-3.71-3.59-.93-.88-2,2.71c-2.47,3.35-4.62,6.94-6.75,10.53l-1.25,2.17c-.48.85-.89,1.62-1.26,2.41-1.35,2.68-2.66,5.5-3.91,8.35-.67,1.55-1.37,3.1-1.91,4.69l-.39,1a135.9,135.9,0,0,0-5.7,20C1402.65,1347.06,1402.34,1348.53,1402,1350Zm72.2,26.56a14.54,14.54,0,0,1-1.53,4.42,25.81,25.81,0,0,0-1,2.43l-.08.21-.5,1.32-.36,1-.06.2c-.61,1.75-1.3,3.52-2,5.27l-.48,1.12-.61,1.35c-.72,1.51-1.49,3.14-2.31,4.85l-.6,1.23c-1,2-2.12,4.12-3.2,6.2-.32.64-.68,1.27-1,1.91a60.84,60.84,0,0,1-6.76,11.62c-2.2,3-5.08,6.35-9.77,7.7l-.46.12a11.68,11.68,0,0,1-1.39.26c-4.37.56-8.64-1.45-11.46-3.31-5.42-3.52-9.06-8.23-12.3-12.89l-1.73-2.54-.93-1.44c-7.2-11.8-11.71-24.07-12.83-35.51a57.22,57.22,0,0,1,0-13.34,99.61,99.61,0,0,1,2-12.76,133.67,133.67,0,0,1,5.62-19.7l.4-1.1c.54-1.58,1.23-3.11,1.9-4.64,1.23-2.82,2.54-5.61,3.87-8.27.38-.78.76-1.54,1.2-2.29l1.28-2.23c2.1-3.55,4.25-7.09,6.67-10.4l.82-1.08,2.71,2.64a93.29,93.29,0,0,1,9.43,10.73l.41.57,1.48-.13,0-.56a65.93,65.93,0,0,0-.3-7.76,84.41,84.41,0,0,0-3.12-15.27c-1-3.46.81-5.57,2.85-7.94.55-.64,1.11-1.29,1.64-2a89.25,89.25,0,0,1,8.28-9.17c3.82-3.57,8.42-6.83,14.21-7.7a1.14,1.14,0,0,1,1,.37h0l.14.18.92,1.24.13-.18.07.14a172.54,172.54,0,0,1,12.16,37.73l.15.75,0,.32c.36,1.9.66,3.82.89,5.71.1.61.19,1.21.28,1.79a148.72,148.72,0,0,1,.91,30.5c-.41,4.13-.69,8.39-1.39,12.53-.11.72-.17,1.47-.23,2.22-.1,2.07-.15,4.21-1.5,5.9-1.67,2.13-4.55,3.9-7.09,5.72l-1.58,1.11a87.64,87.64,0,0,0-9.39,7.52,24.37,24.37,0,0,0-5.71,8l-.18.47,1.51.56.52-.43a16.91,16.91,0,0,1,6.16-3.63,61.29,61.29,0,0,1,9.5-2.62l.18,0a12.46,12.46,0,0,1,2.48-.36,2.77,2.77,0,0,1,.11,1Z"/><path class="cls-13" d="M1465.72,1258.8c-4.17,31.28-10,58.86-15.43,86.81-5.28,27.82-10.35,56-11,84.62-.15,5-.21,9.47-.62,13.91-.24,4.43-.54,8.78-1,13.45l2-.12c.45-4.66.76-9,1-13.41.41-4.44.48-8.94.63-13.9.61-28.48,5.67-56.51,10.93-84.2,5.44-27.83,11.2-55.29,15.3-86.52Z"/><path class="cls-13" d="M1447.5,1363.07l1.34,1.06c13.41-6.92,25.13-14.53,33.71-22.61l-1.69-.86C1472.34,1348.68,1460.78,1356.24,1447.5,1363.07Z"/><path class="cls-13" d="M1452.8,1337.16l1.17,1.2c5.39-1.95,10.69-4,15.45-6.2a146.09,146.09,0,0,0,13.34-7.05l-1.52-1.06A149.53,149.53,0,0,1,1452.8,1337.16Z"/><path class="cls-13" d="M1401.56,1352.61c17.34,11.3,31.46,24.63,40.86,37.71l1.79-.47c-9.54-13.24-23.86-26.78-41.47-38.33Z"/><path class="cls-13" d="M1401.62,1371.78c17.35,11.9,30,23,39.18,35.38l1.79-.56a129.81,129.81,0,0,0-16.75-18.1,229,229,0,0,0-22.95-17.77Z"/><path class="cls-14" d="M1578.89,1659.64c-2.56-9.62-10.07-20.65-6.13-30.21,2.71-6.49,9.59-9.81,17.38-12s16.45-3.49,23.17-6.34c12.68-5.42,18.28-18,14.37-32.27-2.63-9.45-9.36-19.71-7.38-28.85,2.24-10.34,14.24-14.42,22.08-21.19,9.51-8.23,13.17-23.4,5.47-36.68s-28.45-20.46-37.81-11c-7.08,7.23-5.37,19.78-10.18,28.58-6.65,12.23-23.83,14.75-39.14,18.15-15.22,3.2-32.67,11.38-33.85,27.25-.8,10.94,7,21.41,7.33,32,.46,13.44-10.73,23.51-19,34.78-10.11,13.47-16.26,31.5-12.39,48.53a43.73,43.73,0,0,0,17.52,25.38c8.89,6,19.6,7.87,29.93,3.77,10-4,18.25-10.13,23.44-16.93S1581.1,1668.06,1578.89,1659.64Z"/><path class="cls-15" d="M1533.71,1740.2l2.14-.12a434.19,434.19,0,0,1,3.54-61.12,339.79,339.79,0,0,1,12.92-58.65c14.12-44.59,40.07-87,77-115.81l-1.46-1.57c-37.17,29-63.33,71.68-77.59,116.7a342.44,342.44,0,0,0-13,59A434.47,434.47,0,0,0,1533.71,1740.2Z"/><path class="cls-15" d="M1567.37,1580.38l.05,1.85c13.13,1.38,25.46-1.38,34.47-7.49l-1.47-1.51C1591.78,1579.12,1579.92,1581.74,1567.37,1580.38Z"/><path class="cls-15" d="M1572.1,1540.87c-1.88,7.37-.21,15.73,4.56,22.71l1.72-.79c-4.46-6.55-6-14.35-4.26-21.23Z"/><path class="cls-15" d="M1524.37,1627.27c1.44,4.66,2.85,9.35,5.78,13.55a22.2,22.2,0,0,0,12.67,9.19l.48-1.73a20.22,20.22,0,0,1-11.35-8.36c-2.74-4-4.13-8.53-5.53-13.06Z"/><path class="cls-15" d="M1539.2,1672.39l1,1.64c10.83-4.14,19.77-10.42,25.42-18.08l-1.88-1C1558.29,1662.41,1549.58,1668.45,1539.2,1672.39Z"/><path class="cls-16" d="M1252.17,386.49c-38.52,29.19-59.72,85.15-37.38,128,11.91,22.84,35.18,42.44,33.28,68.13-2.66,36.09-48.53,47.42-79.81,65.61-32.09,18.65-54.12,53.6-57.1,90.6s13.16,75,41.85,98.57c19.62,16.1,43.84,25.59,64.34,40.55,19.91,14.53,36.74,39.71,30.71,64.81-3.3,13.73-13.57,24.66-19.29,37.57-15.27,34.49,3,74.91,27.5,103.56,25.43,29.73,51.72,46,90.48,51.33s85.69-11.43,103.38-46.32c24.21-47.78,1.68-106.51,36.58-147.15,13.93-16.21,36.2-25.8,44.21-45.62,17-42-43.23-81.3-37.14-126.17,6.82-50.3,90.64-69.28,84.28-119.63-4.76-37.58-56.71-49.27-73.54-83.21-12.78-25.78-1.91-56.38-1.55-85.15C1504.53,355.25,1335.67,323.2,1252.17,386.49Z"/><path class="cls-17" d="M1366.53,1248.59c-7.49-58.45-10-117.43-10.58-176.31-1.12-118.95,6.19-238-.23-356.88-1.94-35.75-7-70.62-12.57-105.39.75,29.75.47,57.5.49,66,.13,59.32-1.8,118.62-4.44,177.88-5.33,119.58-13.72,239.07-14.5,358.81-.43,67.2,1.51,134.47,7.74,201.41l72.65,2.85C1388.83,1416.36,1368.76,1266,1366.53,1248.59Z"/><path class="cls-17" d="M1351.19,767.41a254.13,254.13,0,0,1,57.47-75.75c-13.23,20.24-26.51,40.57-36.7,62.49s-17.27,45.66-17.37,69.84Z"/><path class="cls-17" d="M1342.43,868.29c-17-36.38-42.55-68-67.83-99.2,24.24,51.35,50.05,85.63,72.72,145Z"/><path class="cls-17" d="M1345.88,1008.5a339.13,339.13,0,0,1,68.06-106.76,374.21,374.21,0,0,0-65,164.69Z"/><path class="cls-4" d="M1157.43,714.61c13.93-.22,19.09,4,31.19,10.92-12.85,6.39-19.65,8.09-33.36,3.88a56.71,56.71,0,0,1-19-10.12A53.91,53.91,0,0,1,1157.43,714.61Z"/><path class="cls-15" d="M1275.27,834.39c11.56,7.76,13.38,14.19,19.38,26.75-14.19-2.08-20.74-4.56-29.61-15.84a56.89,56.89,0,0,1-9.79-19.12A53.74,53.74,0,0,1,1275.27,834.39Z"/><path class="cls-4" d="M1464.58,811.63c-1.17,13.88-5.9,18.59-14,29.94-5.08-13.41-6.1-20.35-.55-33.57a56.81,56.81,0,0,1,12-17.85A53.55,53.55,0,0,1,1464.58,811.63Z"/><path class="cls-15" d="M1251.62,735.1c-19,1.28-39.89-8.58-37.83-33.25C1233.87,703.79,1246.62,720.37,1251.62,735.1Z"/><path class="cls-15" d="M1225.12,755.7c-10.46,9-26.92,12.44-36.5-2.79C1201.13,745.26,1215.78,749.33,1225.12,755.7Z"/><path class="cls-18" d="M1464.07,731.72c-.78,13.8-9.78,28-27.39,24.28C1439.89,741.69,1453,734,1464.07,731.72Z"/><path class="cls-15" d="M1297.41,1023.45c-13.8.83-28.94-6.46-27.31-24.38C1284.69,1000.59,1297.41,1008.64,1297.41,1023.45Z"/><path class="cls-15" d="M1318.19,527.1c-13.57-2.65-26.41-13.49-20.35-30.43C1311.59,501.79,1317.44,515.82,1318.19,527.1Z"/><path class="cls-4" d="M1231.2,859.4c-11.76-7.27-19.94-21.95-8.28-35.66C1234,833.39,1234.48,848.59,1231.2,859.4Z"/><path class="cls-4" d="M1406.76,627.06c-12.63-5.63-22.71-19.08-13-34.22C1406,600.91,1408.56,615.9,1406.76,627.06Z"/><path class="cls-15" d="M1468,513.05c1.25-4,4.16-7.28,7.44-9.88a37.77,37.77,0,0,1,9.75-5.58c-.13,1.26-.32,2.53-.54,3.76-.93,5.19-2.2,10.4-4.82,15s-6.75,8.48-11.84,9.85C1467.34,521.81,1466.69,517.27,1468,513.05Z"/><path class="cls-19" d="M1367.23,524.53c1.93-6.18,6.43-11.25,11.5-15.28a58.43,58.43,0,0,1,15.07-8.62c-.19,1.95-.49,3.9-.83,5.81-1.43,8-3.4,16.08-7.45,23.15s-10.44,13.11-18.3,15.23C1366.19,538.07,1365.19,531,1367.23,524.53Z"/><path class="cls-4" d="M1334,383.74c5.49,16.54,3.14,34.94-16.76,52.28-2.67-7.29-4.7-11.11-4.45-18.85C1313.22,403.19,1320.93,388.77,1334,383.74Z"/><path class="cls-15" d="M1243.47,505.7c-9.74-3.51-16-13.85-16.49-24.18a35.67,35.67,0,0,1,2.34-14C1243.47,479.63,1246.25,491.52,1243.47,505.7Z"/><path class="cls-15" d="M1442.44,998.3c-5.65-8.67-4.42-20.71,1.44-29.23a35.63,35.63,0,0,1,10.3-9.72C1458.17,977.51,1453.22,988.67,1442.44,998.3Z"/><path class="cls-18" d="M1265.24,660.56c-9.26,4.61-21.08,2-28.88-4.8a35.66,35.66,0,0,1-8.46-11.35C1246.4,642.54,1256.92,648.75,1265.24,660.56Z"/><path class="cls-19" d="M1277.27,447.56c-10.28-1.23-18.72-9.9-21.49-19.87a35.49,35.49,0,0,1-.84-14.14C1271.43,422.15,1276.8,433.12,1277.27,447.56Z"/><path class="cls-15" d="M1297.62,595.18c1.16,10.28-5.34,20.49-14.41,25.47a35.49,35.49,0,0,1-13.57,4.07C1274.23,606.69,1283.67,598.94,1297.62,595.18Z"/><path class="cls-18" d="M1204.25,797.23c-7.61,7-19.69,7.79-29.07,3.42a35.8,35.8,0,0,1-11.29-8.55C1181.15,785.16,1193,788.2,1204.25,797.23Z"/><path class="cls-15" d="M1431,548.08c-1.5,13.85,2.25,19.38,8,32.06,7.54-12.2,9.86-18.81,6.94-32.85a56.9,56.9,0,0,0-8.33-19.81A53.77,53.77,0,0,0,1431,548.08Z"/><path class="cls-18" d="M1382.07,1031.89c-1.5,13.85,2.25,19.38,8,32.06,7.55-12.2,9.87-18.81,7-32.86a56.93,56.93,0,0,0-8.33-19.8A53.71,53.71,0,0,0,1382.07,1031.89Z"/><path class="cls-18" d="M1465.59,899c19,1.29,39.88-8.58,37.83-33.24C1483.33,867.69,1470.58,884.27,1465.59,899Z"/><path class="cls-4" d="M1275.68,1053.94c-4,13.22-.51,29.65,17.29,32.27C1294.91,1071.68,1285.28,1059.91,1275.68,1053.94Z"/><path class="cls-15" d="M1414.84,862.94c-1.56-5-5.2-9.08-9.28-12.32a47.41,47.41,0,0,0-12.16-7c.15,1.58.39,3.15.67,4.69,1.15,6.47,2.74,13,6,18.67s8.42,10.59,14.77,12.29C1415.67,873.87,1416.48,868.2,1414.84,862.94Z"/><path class="cls-18" d="M1414.61,460.73c-1.93-6.17-6.44-11.25-11.51-15.28a58.56,58.56,0,0,0-15.07-8.62c.2,1.95.49,3.9.83,5.81,1.44,8,3.41,16.08,7.46,23.15s10.43,13.12,18.3,15.23C1415.64,474.27,1416.65,467.25,1414.61,460.73Z"/><path class="cls-20" d="M1459.7,458.93c9.74-3.5,16-13.85,16.49-24.18a35.5,35.5,0,0,0-2.35-14C1459.7,432.86,1456.92,444.75,1459.7,458.93Z"/><path class="cls-20" d="M1280.62,960.82c9.74-3.5,16-13.84,16.49-24.18a35.67,35.67,0,0,0-2.34-14C1280.62,934.75,1277.84,946.64,1280.62,960.82Z"/><path class="cls-15" d="M1450.38,711.78c9.89,3,21.12-1.46,27.7-9.46a35.49,35.49,0,0,0,6.49-12.58C1466,690.92,1456.66,698.77,1450.38,711.78Z"/><path class="cls-18" d="M1441.88,635.7c9.95,2.82,21.09-1.93,27.48-10.06a35.62,35.62,0,0,0,6.23-12.72C1457.05,614.5,1447.87,622.55,1441.88,635.7Z"/><path class="cls-4" d="M1536.35,634.84c-10.35,0-19.78,7.58-23.73,17.14a35.66,35.66,0,0,0-2.53,13.93C1527.5,659.36,1534.15,649.12,1536.35,634.84Z"/><path class="cls-4" d="M1445.42,1044.17c-10.35,0-19.78,7.58-23.73,17.14a35.67,35.67,0,0,0-2.53,13.94C1436.57,1068.69,1443.22,1058.45,1445.42,1044.17Z"/><path class="cls-19" d="M1376.21,373.89c-7,7.59-7.87,19.66-3.53,29.06a35.48,35.48,0,0,0,8.5,11.32C1388.19,397.05,1385.2,385.21,1376.21,373.89Z"/><path class="cls-4" d="M1314.86,698.83c3.32,11.61-2.18,24.61-11.64,32.1a41.68,41.68,0,0,1-14.82,7.3C1290.19,716.61,1299.54,705.87,1314.86,698.83Z"/><path class="cls-21" d="M421.15,1500.59l1150.12,260.28s-777.74,120.56-785.46,125.48c-5.69,3.63-459.16-141.76-720.76-225.07l102.06-71.89Z"/><path class="cls-12" d="M1249.17,1031.55l-50.57-5.86S944,1163.52,949.53,1171.88C957,1183,707.78,1618.2,707.78,1618.2l879.93,143,8.84-1.84a2.17,2.17,0,0,0,1.51-3.06Z"/><path class="cls-22" d="M1237.88,1032.48a88.42,88.42,0,0,0-13.7-5.47c-18.82-5.76-30.31.38-40.92,2.55-64.68,25.28-310.18,47-245.28,144.38,7.44,11.16-241.75,446.32-241.75,446.32l891.48,140.61Z"/><polygon class="cls-23" points="1538.11 1779.07 921.64 1675.86 1192.15 1038.04 1215.15 1047.3 1538.11 1779.07"/><path class="cls-24" d="M1192.15,1038l14.82,6c18.2,227-42.47,485-150.52,652.46l-134.81-20.61Z"/><path class="cls-3" d="M1211.09,1029.15s9,339.87,327,749.92l44-19.28-346-727.42Z"/><path class="cls-25" d="M1220.88,1052.21s45.41,340.53,331.42,720.64"/><path class="cls-25" d="M1225.42,1053.32s117.12,431.45,331.62,716.54"/><path class="cls-25" d="M1230,1054.43s188.83,522.38,331.83,712.43"/><path class="cls-25" d="M1301.44,1210.65c28.49,65.25,63.25,144,98.53,221.67"/><path class="cls-3" d="M1218.2,1031.86s-98.85,592.92-375.31,792.67l-159-42.35,330.49-644.65,70.82-83.53,91.51-11.76c5-2.17,13.27-11.06,22.5-11.83C1205.59,1029.88,1213.88,1031.17,1218.2,1031.86Z"/><path class="cls-26" d="M1014.36,1137.53l70.82-83.53,91.51-11.76c4.09-1.79,10.47-8.08,17.74-10.69l-394.67,781.5-115.89-30.87Z"/><path class="cls-25" d="M1197.86,1056.65s-83.81,493.22-375.56,762.4"/><path class="cls-25" d="M1185.48,1056.65s-82.3,484.36-367.71,755.06"/><path class="cls-25" d="M1149.1,1046.21s-81.71,480.93-364.68,752.17"/><path class="cls-12" d="M67.73,1667.86l170.39,36,252.52,53.29,290.16,61.25a4.33,4.33,0,0,0,4.75-2.24l402.88-784.66a4.29,4.29,0,0,0-4.36-6.21L435,1118.71a19.87,19.87,0,0,0-14,8.64L65.06,1661.29A4.27,4.27,0,0,0,67.73,1667.86Z"/><polygon class="cls-27" points="238.12 1703.82 490.64 1757.11 632.26 1156.37 526.37 1156.37 238.12 1703.82"/><path class="cls-28" d="M181.74,1590.24,441.3,1200.9a39,39,0,0,0,43.1-24.63l503.29-44.58c0,.34-.05.66-.05,1a33.72,33.72,0,0,0,26.46,32.92L746.47,1686.81a40.29,40.29,0,0,0-46.69,22.78l-507.73-87.77a39.45,39.45,0,0,0,.25-4.37A40.3,40.3,0,0,0,181.74,1590.24Z"/><path class="cls-29" d="M692.78,1694.52a54.24,54.24,0,0,1,44-22.58c.65,0,1.31,0,2,0l256.61-499.76a48,48,0,0,1-19.29-25.79l-482.8,42.77a52.6,52.6,0,0,1-45,25.91L198.38,1589.89a53.86,53.86,0,0,1,7.09,20.4Z"/><line class="cls-30" x1="1141.97" y1="1070.55" x2="421.15" y2="1150.37"/><path class="cls-12" d="M1178.39,1042.23c31-21.86,64.36-2.87,65.77-2.06l5.18-8.83c-1.63-1-40.36-23.21-76.85,2.51Z"/><line class="cls-31" x1="576.55" y1="1102.36" x2="576.55" y2="702.57"/><circle class="cls-32" cx="576.55" cy="703.02" r="9.02"/><line class="cls-33" x1="529.18" y1="1150.88" x2="211.36" y2="1758.43"/><line class="cls-33" x1="632.25" y1="1150.88" x2="335.42" y2="1789.72"/><line class="cls-34" x1="391.24" y1="1670.56" x2="272.16" y2="1648.56"/><line class="cls-34" x1="421.79" y1="1604.1" x2="305" y2="1585.25"/><line class="cls-34" x1="452.34" y1="1537.64" x2="337.84" y2="1521.93"/><line class="cls-34" x1="482.9" y1="1471.18" x2="370.68" y2="1458.62"/><line class="cls-34" x1="513.45" y1="1404.72" x2="403.53" y2="1395.3"/><line class="cls-34" x1="544.01" y1="1338.27" x2="436.37" y2="1331.98"/><line class="cls-34" x1="574.56" y1="1271.81" x2="469.21" y2="1268.67"/><line class="cls-34" x1="605.12" y1="1205.35" x2="502.05" y2="1205.35"/><path class="cls-35" d="M879.41,266.48c10-31,36.77-56.1,68.41-64s67,1.75,90.38,24.52c22.48-15.4,53-18.33,78-7.49s43.69,35.08,47.81,62c17.83-13.34,43.69-14.87,63-3.73,13.07,7.54,22.58,20.61,26.56,35.12H780.08C795.85,276.51,841.13,254,879.41,266.48Z"/><path class="cls-36" d="M174.17,567.34c35-31.15,84.26-45.69,130.61-38.57,6.76-32.16,34.53-58.82,66.94-64.27S439.1,475.19,456,503.37c16.55-16.93,44.94-20.69,65.32-8.66,17.86,10.54,29.08,31.16,29.12,51.74a192.75,192.75,0,0,1,49-4.46c17.54.66,43.58,10.85,44.66,31.71a23.61,23.61,0,0,1-1.49,9.74H164C165.3,577.64,169.58,571.43,174.17,567.34Z"/><path class="cls-36" d="M2905.56,531.16c38.5-34.23,92.57-50.2,143.49-42.38,7.43-35.33,37.95-64.63,73.55-70.61s74,11.74,92.59,42.71c18.17-18.6,49.37-22.74,71.76-9.52,19.62,11.58,31.94,34.23,32,56.84a211.89,211.89,0,0,1,53.86-4.89c19.27.72,47.88,11.91,49.07,34.84a25.92,25.92,0,0,1-1.65,10.7H2894.38C2895.81,542.47,2900.51,535.65,2905.56,531.16Z"/><path class="cls-10" d="M2680.31,634.16c-15.72,1.15-31.95,10.8-35.64,26.12L2624,662.1q5.63,6.52,11.24,13c-11,14-7.41,35.3,3.45,49.37s27.28,22.52,43.3,30.24a58.47,58.47,0,0,1-10.14-33.82c.12-6.74,2-14.31,7.87-17.64,4.83-2.74,11.08-1.69,15.82,1.2s8.28,7.34,11.72,11.69q7.17-11.37,14.35-22.74c-7.13-4.9-16.52-4.37-24.9-6.47s-17.15-9.9-14.22-18c1.4-3.87,5.05-6.42,8.62-8.47a93.61,93.61,0,0,1,41.56-12.4C2716.15,640.37,2699.19,632.78,2680.31,634.16Z"/><path class="cls-4" d="M2403.84,196.54a48.44,48.44,0,0,0-29.4,66.41c-9.14-3.75-17.57-7.79-27.53-3.91,1.72-.67,8.31,9.95,9.1,11.35,2.4,4.23,3.48,8.54,6.57,12.31a58,58,0,0,0,26.66,18.52c9.07,2.95,18.64,3.59,28,4.87,8.95,1.22,14.77-.35,20.36,5.09s8.09,12.08,11.46,18.81c4-1.8,14.94-17.83,17-21.61-.39.69-35.38-14.53-37.93-17.26,14.42,2.56,35.49-4.32,47.06-13.31s20.36-21,29-32.8c-.64.88-99.91,21.64-99.91,21.64S2405.45,212.29,2403.84,196.54Z"/><path class="cls-37" d="M3368.66,106.66c3.55-5,7.23-11.52,4.33-17-2.28-4.27-7.95-6.12-9.66-10.65a8.43,8.43,0,0,1-.57-3.13l-4.61-6.25,10.13-.87a19.87,19.87,0,0,1,8.33-1.9c11.21.09,10.76,5.85,16.89-5.36,10.09-18.47,15.39-41.77,22.68-61.55a59.4,59.4,0,0,1,23.24,42.21,59.38,59.38,0,0,1-16.28,45.36l31-.16q-6.81,14.9-13.61,29.81a59.58,59.58,0,0,1-24.17-11.41c-15.78,30-48.76,50.15-82.66,50.49Q3351.18,131.48,3368.66,106.66Z"/></svg>