<svg width="1440" height="575" viewBox="0 0 1440 575" fill="none" xmlns="http://www.w3.org/2000/svg">
<g clip-path="url(#clip0_584_5685)">
<path d="M1440 -54.6445H0V433.097H1440V-54.6445Z" fill="#EAF2DF"/>
<path d="M1440 19.5312C1416.62 28.6886 1396.45 44.519 1382 65.0536C1372.27 78.7155 1364.7 93.7899 1359.55 109.75C1339.51 105.908 1317.83 117.856 1310.73 136.948C1268.85 115.263 1210.89 137.275 1195.14 182.125C1181.85 179.547 1168.09 180.9 1155.56 186.016C1143.02 191.133 1132.24 199.792 1124.54 210.936C1121.6 208.791 1118.53 206.822 1115.35 205.04C1105 199.29 1093.7 195.463 1082 193.745C1058.95 190.299 1035.44 195.343 1015.83 207.94C1006.22 214.125 997.743 221.922 990.778 230.989C987.509 235.393 984.564 240.028 981.965 244.857C980.045 248.199 977.51 253.001 974.285 253.616C971.992 253.77 969.705 253.235 967.719 252.079C965.031 250.85 962.343 249.621 959.559 248.622C954.99 247.047 950.265 245.972 945.466 245.414C935.883 244.271 926.17 245.021 916.877 247.623C906.106 250.553 896.088 255.76 887.501 262.893C883.348 266.369 879.611 270.313 876.365 274.648C874.731 276.791 873.237 279.037 871.891 281.371C871.459 282.151 871.081 282.96 870.758 283.791C862.293 278.225 852.479 275.055 842.358 274.619C832.237 274.182 822.186 276.496 813.274 281.314L812.294 281.871C808.107 272.235 801.854 263.639 793.978 256.689C784.648 248.131 773.412 241.921 761.203 238.576C736.416 231.93 710.112 239.537 691.334 256.67C682.37 264.81 675.506 274.998 671.328 286.365C658.714 282.889 645.715 280.027 632.621 281.794C626.417 282.586 620.407 284.493 614.88 287.422C611.436 289.303 608.322 291.736 605.664 294.625C600.898 290.273 594.99 287.373 588.634 286.263C582.277 285.154 575.736 285.883 569.779 288.363C567.785 285.335 565.315 282.65 562.464 280.411C557.459 276.289 551.663 273.236 545.434 271.441C534.671 268.272 523.105 269.337 513.101 274.418C505.039 264.696 494.017 257.882 481.719 255.017C469.421 252.152 456.524 253.394 444.998 258.552C443.866 259.09 441.946 260.646 440.659 260.473C439.661 260.339 438.643 258.937 438.029 258.226C435.878 255.767 433.92 253.174 431.597 250.869C427.098 246.377 422.023 242.502 416.506 239.345C405.042 232.898 392.138 229.45 378.989 229.318C371.754 229.24 364.545 230.197 357.581 232.161L356.525 232.468C353.96 225.624 349.53 219.636 343.738 215.181C339.384 211.898 334.376 209.59 329.052 208.413C323.728 207.237 318.214 207.219 312.883 208.363C312.318 205.329 311.568 202.334 310.637 199.393C308.819 193.841 306.472 188.476 303.629 183.373C297.884 173.067 289.947 164.15 280.378 157.251C261.178 143.383 236.045 140.271 213.734 147.455C207.43 149.46 201.405 152.254 195.802 155.772C193.035 157.534 190.374 159.458 187.834 161.534L187.43 161.899C184.142 151.401 177.368 142.34 168.23 136.218C158.938 130.072 145.728 126.864 134.515 129.841C134.649 123.628 132.96 117.511 129.658 112.247C126.855 107.99 123.105 104.441 118.701 101.878C114.297 99.3155 109.359 97.8087 104.275 97.4762C104.275 93.942 104.275 90.3886 103.949 86.9312C103.515 80.6047 102.48 74.3338 100.858 68.2037C97.6153 56.0055 91.9254 44.595 84.1344 34.6669C76.3135 24.7745 66.5275 16.6117 55.394 10.6939C44.2605 4.77614 32.0214 1.23197 19.4496 0.28511C12.9469 -0.224412 6.4088 -0.0506722 -0.0576172 0.80364V540.772C3.60958 540.618 7.27679 540.253 10.5408 540.157L49.1712 539.024C73.8624 538.268 98.5472 537.487 123.226 536.68C172.57 535.067 221.92 533.313 271.277 531.418C369.99 527.678 468.666 523.401 567.302 518.587C762.701 509.098 958.214 501.069 1153.11 483.667C1249.11 475.043 1344.88 463.941 1440 448.325V19.5312Z" fill="white"/>
</g>
<defs>
<clipPath id="clip0_584_5685">
<rect width="1440" height="575" fill="white"/>
</clipPath>
</defs>
</svg>
