<svg width="16" height="16" viewBox="0 0 16 16" fill="none" xmlns="http://www.w3.org/2000/svg">
<path d="M10.3668 7.64037H12.2694V5.7203H10.3668V7.64037ZM3.72036 7.64037H5.62305V5.7203H3.72036V7.64037ZM11.8003 12.3233C11.6107 12.3321 11.4224 12.289 11.2555 12.1987C11.0886 12.1084 10.9495 11.9742 10.8533 11.8107C10.7471 11.6534 10.6847 11.4708 10.6725 11.2814C10.6603 11.0921 10.6987 10.9029 10.7838 10.7333L11.4701 9.37799H10.3668C9.90591 9.37799 9.46394 9.19492 9.13807 8.86905C8.8122 8.54318 8.62913 8.10121 8.62913 7.64037V5.7203C8.62481 5.49507 8.66738 5.2714 8.75413 5.0635C8.84088 4.8556 8.96991 4.66801 9.13304 4.51265C9.29025 4.34896 9.47921 4.21907 9.68835 4.13093C9.8975 4.04279 10.1224 3.99826 10.3494 4.00005H12.2521C12.7129 4.00005 13.1549 4.18312 13.4808 4.50899C13.8066 4.83486 13.9897 5.27683 13.9897 5.73767V8.83064C14.0034 8.9606 14.0034 9.09164 13.9897 9.2216C13.968 9.35397 13.9208 9.48086 13.8507 9.59519L12.8342 11.6803C12.7395 11.8661 12.5989 12.0246 12.4258 12.1408C12.2379 12.2541 12.0191 12.3058 11.8003 12.2885V12.3233ZM5.15389 12.3233C4.96337 12.3303 4.77431 12.2875 4.60542 12.1991C4.43653 12.1106 4.29367 11.9796 4.19097 11.819C4.08828 11.6584 4.02931 11.4737 4.01991 11.2833C4.01051 11.0929 4.05101 10.9033 4.13738 10.7333L4.80637 9.37799H3.72036C3.49556 9.37923 3.27281 9.33527 3.06535 9.2487C2.85789 9.16213 2.66995 9.03473 2.51271 8.87408C2.3501 8.71243 2.22108 8.52019 2.13311 8.30845C2.04513 8.09671 1.99993 7.86966 2.00011 7.64037V5.7203C1.99743 5.4945 2.0416 5.27061 2.12983 5.06275C2.21806 4.85489 2.34843 4.66758 2.51271 4.51265C2.66828 4.34921 2.85571 4.21939 3.06342 4.13123C3.27113 4.04306 3.49471 3.99842 3.72036 4.00005H5.62305C5.85 3.99826 6.07493 4.04279 6.28407 4.13093C6.49322 4.21907 6.68218 4.34896 6.83938 4.51265C7.00251 4.66801 7.13155 4.8556 7.2183 5.0635C7.30505 5.2714 7.34761 5.49507 7.34329 5.7203V8.81326C7.34268 8.94475 7.32812 9.07581 7.29985 9.20423C7.26648 9.3332 7.2199 9.45839 7.16084 9.57781L6.12696 11.663C6.03532 11.8481 5.89772 12.0066 5.72731 12.1234C5.55612 12.2327 5.35696 12.29 5.15389 12.2885V12.3233ZM3.72036 7.64037V5.7203H5.62305V7.64037H3.72036ZM10.3668 7.64037V5.7203H12.2694V7.64037H10.3668Z" fill="#1B4A4D"/>
</svg>
