<svg width="16" height="16" viewBox="0 0 16 16" fill="none" xmlns="http://www.w3.org/2000/svg">
<path d="M3.6293 10.049C3.53371 10.0502 3.43895 10.031 3.35142 9.99254C3.26389 9.95408 3.18563 9.8973 3.1219 9.82603C3.05572 9.75798 3.00392 9.67731 2.96958 9.58881C2.93524 9.50032 2.91906 9.40582 2.92201 9.31094V6.58942C2.92039 6.49562 2.93874 6.40255 2.97586 6.31639C3.01297 6.23023 3.068 6.15296 3.13728 6.08971C3.20259 6.02097 3.28133 5.9664 3.36862 5.92937C3.4559 5.89234 3.54987 5.87364 3.64468 5.87444C3.74084 5.8721 3.83642 5.89006 3.92518 5.92715C4.01393 5.96424 4.09387 6.01963 4.15977 6.08971C4.23006 6.15258 4.28626 6.2296 4.32468 6.31572C4.36311 6.40184 4.38289 6.49512 4.38272 6.58942V9.31094C4.38222 9.4074 4.36222 9.50276 4.3239 9.59128C4.28559 9.6798 4.22976 9.75965 4.15977 9.82603C4.09351 9.90033 4.01151 9.9589 3.91974 9.99747C3.82797 10.036 3.72874 10.0536 3.6293 10.049ZM7.55014 10.049C7.45354 10.0494 7.35791 10.0298 7.26926 9.99143C7.18061 9.95306 7.10086 9.89674 7.03505 9.82603C6.96506 9.75965 6.90923 9.6798 6.87092 9.59128C6.8326 9.50276 6.8126 9.4074 6.8121 9.31094V6.58942C6.81193 6.49512 6.83171 6.40184 6.87013 6.31572C6.90856 6.2296 6.96476 6.15258 7.03505 6.08971C7.1023 6.02137 7.18248 5.96709 7.27091 5.93005C7.35934 5.893 7.45426 5.87392 7.55014 5.87392C7.64602 5.87392 7.74094 5.893 7.82937 5.93005C7.91781 5.96709 7.99798 6.02137 8.06523 6.08971C8.13552 6.15258 8.19172 6.2296 8.23015 6.31572C8.26857 6.40184 8.28835 6.49512 8.28818 6.58942V9.31094C8.28769 9.4074 8.26768 9.50276 8.22936 9.59128C8.19105 9.6798 8.13522 9.75965 8.06523 9.82603C7.99767 9.89868 7.91544 9.95613 7.82398 9.99457C7.73252 10.033 7.63394 10.0516 7.53476 10.049H7.55014ZM1.9149 4.62131C1.79521 4.62441 1.67612 4.60338 1.56473 4.55947C1.45335 4.51556 1.35194 4.44967 1.26657 4.36573C1.18119 4.28179 1.11359 4.18152 1.0678 4.07089C1.02201 3.96027 0.998963 3.84155 1.00004 3.72183C1.00503 3.53255 1.06368 3.34859 1.16917 3.19136C1.25616 3.02325 1.39315 2.88627 1.56125 2.79928L6.85823 0.108507C6.96392 0.0547714 7.07857 0.0208956 7.1965 0.00856396C7.31412 -0.00252694 7.43252 -0.00252694 7.55014 0.00856396C7.66775 -0.00285466 7.78618 -0.00285466 7.90378 0.00856396C8.02376 0.0304463 8.13853 0.074788 8.24205 0.139259L13.5237 2.83003C13.6933 2.91485 13.8309 3.05243 13.9157 3.22211C14.0212 3.37934 14.0799 3.56331 14.0849 3.75258C14.0819 3.8697 14.0558 3.98509 14.0082 4.09215C13.9606 4.19921 13.8924 4.29583 13.8074 4.37651C13.7225 4.45719 13.6225 4.52033 13.5131 4.56234C13.4037 4.60434 13.2871 4.62438 13.17 4.62131H1.9149ZM1.75345 12.7936C1.65384 12.7942 1.5552 12.774 1.46385 12.7343C1.3725 12.6946 1.29046 12.6362 1.22299 12.5629C1.15242 12.4954 1.09628 12.4142 1.05796 12.3244C1.01964 12.2345 0.999936 12.1378 1.00004 12.0402C1.00088 11.8385 1.08096 11.6452 1.22299 11.502C1.29046 11.4287 1.3725 11.3704 1.46385 11.3306C1.5552 11.2909 1.65384 11.2707 1.75345 11.2714H8.44963C8.44963 11.5174 8.49575 11.7711 8.53419 12.0402C8.56885 12.3007 8.62543 12.5579 8.70333 12.8089L1.75345 12.7936ZM10.7252 7.28133V6.58942C10.7236 6.49562 10.742 6.40255 10.7791 6.31639C10.8162 6.23023 10.8712 6.15296 10.9405 6.08971C11.0064 6.01963 11.0863 5.96424 11.1751 5.92715C11.2639 5.89006 11.3594 5.8721 11.4556 5.87444C11.6383 5.87256 11.8146 5.94144 11.9476 6.06664C12.0172 6.12225 12.0738 6.1923 12.1136 6.27194C12.1535 6.35158 12.1755 6.43892 12.1783 6.52792V6.57404L10.7252 7.28133ZM12.6626 14.9692C11.8362 14.7565 11.1101 14.2615 10.6099 13.57C10.0751 12.8561 9.78888 11.9866 9.79501 11.0945V9.73378C9.79622 9.59352 9.83327 9.45591 9.90264 9.33401C9.97285 9.20746 10.0802 9.10549 10.2102 9.04187L12.3243 8.004C12.4245 7.93752 12.5424 7.9027 12.6626 7.90405C12.7804 7.90281 12.8958 7.93769 12.9932 8.004L15.1074 9.04187C15.2373 9.10549 15.3447 9.20746 15.4149 9.33401C15.4893 9.45413 15.5292 9.59245 15.5302 9.73378V11.0945C15.5335 11.9874 15.2446 12.8568 14.7076 13.57C14.2155 14.2725 13.4913 14.7789 12.6626 15V14.9692ZM14.3232 10.4718C14.3556 10.4429 14.3812 10.4073 14.3985 10.3675C14.4158 10.3277 14.4242 10.2846 14.4231 10.2412C14.4231 10.1991 14.4141 10.1575 14.3969 10.1191C14.3797 10.0807 14.3546 10.0463 14.3232 10.0182C14.2939 9.98894 14.2592 9.96571 14.2209 9.94985C14.1827 9.934 14.1417 9.92584 14.1002 9.92584C14.0588 9.92584 14.0178 9.934 13.9796 9.94985C13.9413 9.96571 13.9066 9.98894 13.8773 10.0182L12.2628 11.6404L11.494 10.8716C11.4651 10.8392 11.4295 10.8135 11.3897 10.7963C11.3499 10.779 11.3068 10.7706 11.2634 10.7716C11.2213 10.7717 11.1797 10.7807 11.1413 10.7979C11.1029 10.8151 11.0685 10.8402 11.0405 10.8716C11.0112 10.9009 10.9879 10.9356 10.9721 10.9739C10.9562 11.0121 10.9481 11.0531 10.9481 11.0945C10.9481 11.1359 10.9562 11.177 10.9721 11.2152C10.9879 11.2535 11.0112 11.2882 11.0405 11.3175L11.717 11.994C11.7902 12.0659 11.8762 12.1232 11.9707 12.1632C12.0617 12.2078 12.1615 12.2315 12.2628 12.2324C12.3617 12.2314 12.459 12.2077 12.5473 12.1632C12.6423 12.1243 12.7286 12.0668 12.801 11.994L14.3232 10.4718Z" fill="#1B4A4D"/>
</svg>
