<svg width="40" height="40" viewBox="0 0 40 40" fill="none" xmlns="http://www.w3.org/2000/svg">
<path d="M20 27.4994C19.8464 27.5038 19.6935 27.4764 19.551 27.4188C19.4085 27.3613 19.2795 27.2748 19.1721 27.165C19.0646 27.0551 18.981 26.9242 18.9266 26.7805C18.8722 26.6368 18.8481 26.4834 18.8559 26.3299V21.1689H13.6441C13.3392 21.1597 13.0497 21.0327 12.8364 20.8147C12.623 20.5966 12.5025 20.3044 12.5 19.9994C12.4933 19.8451 12.5209 19.6912 12.5807 19.5488C12.6404 19.4064 12.731 19.279 12.8458 19.1757C13.0592 18.9677 13.3461 18.8526 13.6441 18.8553H18.8559V13.6435C18.8507 13.4898 18.8784 13.3368 18.9371 13.1947C18.9959 13.0527 19.0844 12.9248 19.1966 12.8197C19.4177 12.6142 19.7083 12.5 20.0102 12.5C20.312 12.5 20.6027 12.6142 20.8237 12.8197C20.9377 12.9237 21.0277 13.0513 21.0874 13.1935C21.1471 13.3357 21.1751 13.4893 21.1695 13.6435V18.8553H26.3559C26.6619 18.8497 26.9579 18.9648 27.1797 19.1757C27.2945 19.279 27.385 19.4064 27.4448 19.5488C27.5045 19.6912 27.5321 19.8451 27.5254 19.9994C27.5312 20.1558 27.5034 20.3117 27.4437 20.4565C27.3841 20.6012 27.294 20.7314 27.1797 20.8384C27.071 20.9451 26.9422 21.0292 26.8008 21.086C26.6595 21.1427 26.5082 21.1709 26.3559 21.1689H21.1695V26.3299C21.1764 26.488 21.1491 26.6457 21.0895 26.7923C21.0298 26.9388 20.9391 27.0708 20.8237 27.1791C20.7142 27.2839 20.5851 27.3662 20.4437 27.4212C20.3024 27.4762 20.1516 27.5027 20 27.4994V27.4994Z" fill="#1B4A4D"/>
</svg>
