<svg width="16" height="16" viewBox="0 0 16 16" fill="none" xmlns="http://www.w3.org/2000/svg">
<path d="M8.73814 11.2272C9.17457 11.0313 9.62867 10.8774 10.0943 10.7676C10.5479 10.656 11.0134 10.6003 11.4805 10.6019C11.8466 10.6011 12.212 10.6314 12.573 10.6923C12.9431 10.7631 13.3081 10.8587 13.6654 10.9786V4.88354C13.3199 4.74172 12.9617 4.63324 12.5956 4.55958C12.2313 4.48397 11.8601 4.4461 11.4881 4.44657C11.0108 4.44888 10.5354 4.50704 10.0717 4.61985C9.60481 4.72894 9.15755 4.90936 8.74568 5.15477L8.73814 11.2272ZM8.07515 13.0655C7.97358 13.0646 7.87245 13.052 7.77378 13.0279C7.6813 12.9986 7.59275 12.9581 7.51009 12.9073C7.08126 12.638 6.62067 12.4229 6.13889 12.2669C5.65298 12.1056 5.14409 12.0241 4.63208 12.0258C4.19281 12.0265 3.75608 12.0925 3.33622 12.2217C2.91454 12.3547 2.50598 12.5262 2.11571 12.734C2.00317 12.8058 1.87247 12.8439 1.739 12.8439C1.60553 12.8439 1.47484 12.8058 1.3623 12.734C1.24862 12.6752 1.15416 12.585 1.09008 12.4742C1.02599 12.3634 0.994968 12.2366 1.00066 12.1087V4.4767C0.996313 4.33237 1.0301 4.18944 1.09861 4.06233C1.17226 3.93948 1.27942 3.84016 1.4075 3.77604C1.88264 3.51666 2.38903 3.31917 2.91432 3.18838C3.45058 3.06499 3.99893 3.00182 4.54921 3.00003C5.14965 2.99828 5.74763 3.07683 6.32725 3.23358C6.90963 3.38541 7.46765 3.61876 7.98474 3.92672C8.50258 3.62742 9.05724 3.39695 9.6347 3.24112C10.7506 2.94532 11.9242 2.94532 13.0401 3.24112C13.5782 3.37003 14.0992 3.56223 14.5921 3.81371C14.7202 3.87783 14.8274 3.97715 14.901 4.1C14.9695 4.22711 15.0033 4.37004 14.999 4.51437V12.1539C15.0061 12.2771 14.9763 12.3997 14.9131 12.5058C14.85 12.6119 14.7566 12.6966 14.6448 12.7491C14.5303 12.8152 14.4004 12.85 14.2681 12.85C14.1359 12.85 14.006 12.8152 13.8914 12.7491C13.5077 12.5313 13.1008 12.357 12.6785 12.2293C12.2573 12.1067 11.8212 12.0433 11.3826 12.0409C10.8705 12.0374 10.3613 12.1189 9.87579 12.282C9.40122 12.4382 8.94814 12.6533 8.52719 12.9224C8.43857 12.9719 8.34517 13.0122 8.24843 13.0429C8.19127 13.0545 8.13337 13.0621 8.07515 13.0655Z" fill="#1B4A4D"/>
</svg>
