<svg width="30" height="30" viewBox="0 0 30 30" fill="none" xmlns="http://www.w3.org/2000/svg">
<path d="M16.384 21.051C17.2023 20.6837 18.0537 20.3952 18.9268 20.1893C19.7772 19.98 20.6502 19.8756 21.526 19.8786C22.2124 19.8771 22.8976 19.9338 23.5743 20.0481C24.2684 20.1808 24.9527 20.3602 25.6227 20.5849V9.15664C24.9749 8.89073 24.3032 8.68732 23.6167 8.54921C22.9336 8.40745 22.2378 8.33644 21.5401 8.33732C20.6452 8.34165 19.7539 8.45069 18.8844 8.66222C18.009 8.86676 17.1704 9.20506 16.3981 9.66519L16.384 21.051ZM15.1409 24.4979C14.9505 24.4962 14.7608 24.4725 14.5758 24.4272C14.4024 24.3723 14.2364 24.2964 14.0814 24.2012C13.2774 23.6962 12.4138 23.2929 11.5104 23.0005C10.5993 22.6979 9.64517 22.5453 8.68515 22.5484C7.86151 22.5497 7.04264 22.6735 6.25542 22.9157C5.46475 23.1651 4.6987 23.4866 3.96695 23.8763C3.75594 24.0109 3.51089 24.0823 3.26063 24.0823C3.01037 24.0823 2.76532 24.0109 2.55431 23.8763C2.34116 23.766 2.16405 23.597 2.04389 23.3892C1.92374 23.1814 1.86557 22.9436 1.87625 22.7038V8.39382C1.86809 8.1232 1.93143 7.8552 2.05989 7.61687C2.19799 7.38652 2.3989 7.20031 2.63907 7.08007C3.52996 6.59374 4.47943 6.22345 5.46434 5.97821C6.46984 5.74686 7.498 5.62841 8.52976 5.62505C9.65559 5.62177 10.7768 5.76905 11.8636 6.06297C12.9556 6.34764 14.0018 6.78517 14.9714 7.3626C15.9423 6.80142 16.9823 6.36927 18.0651 6.0771C20.1573 5.52247 22.3579 5.52247 24.4502 6.0771C25.4592 6.3188 26.436 6.67918 27.3602 7.1507C27.6004 7.27094 27.8013 7.45715 27.9394 7.6875C28.0678 7.92584 28.1312 8.19383 28.123 8.46445V22.7886C28.1365 23.0196 28.0805 23.2494 27.9621 23.4484C27.8438 23.6473 27.6686 23.8062 27.4591 23.9046C27.2443 24.0286 27.0007 24.0938 26.7528 24.0938C26.5048 24.0938 26.2612 24.0286 26.0465 23.9046C25.3269 23.4963 24.5641 23.1693 23.7721 22.9298C22.9825 22.7001 22.1647 22.5812 21.3424 22.5767C20.3821 22.5702 19.4274 22.7229 18.5171 23.0287C17.6273 23.3215 16.7778 23.7249 15.9885 24.2295C15.8223 24.3222 15.6472 24.398 15.4658 24.4555C15.3586 24.4772 15.2501 24.4914 15.1409 24.4979Z" fill="#95C750"/>
</svg>
