<svg fill="none" height="16" viewBox="0 0 16 16" width="16" xmlns="http://www.w3.org/2000/svg"><path d="m9.94264 12.0683c-.23169.0037-.46174-.0395-.67629-.1273-.21456-.0877-.40917-.2181-.57212-.3833-.16523-.1579-.29585-.3485-.38352-.5598-.08767-.2112-.13048-.4385-.12569-.6673-.00474-.2324.03799-.46338.12556-.67865.08757-.21526.21813-.41029.38365-.5731.16295-.16519.35756-.29559.57212-.38334.21455-.08775.4446-.13103.67629-.12725.22816-.0048.45486.03812.66556.12603.2107.08792.4008.21888.5582.38456.1629.16436.2912.35986.3772.57489.0861.21503.1282.44526.1238.67686.0059.2282-.0357.4551-.1219.6663-.0863.2113-.2153.4022-.3791.5608-.1574.1657-.3475.2966-.5582.3845s-.4374.1309-.66556.1261zm-6.31595 2.9317c-.21343.0043-.42549-.0351-.6232-.1158-.19772-.0807-.37692-.201-.52664-.3536-.15547-.1498-.27812-.3304-.36014-.5303s-.1216-.4148-.11623-.6309v-9.29761c-.00537-.21611.03421-.43097.11623-.63089s.20467-.38052.36014-.53029c.14972-.15257.32892-.2729.52664-.35361.19771-.08071.40977-.12012.6232-.1158h.50101v-.66706c-.00086-.10156.01912-.20221.05868-.29571s.09786-.17785.17129-.24782c.06822-.07339.15089-.13178.24279-.17148.09189-.03969.19101-.059815.29107-.0591.10129-.00086.20167.01917.29492.05883.09325.03967.17737.09813.24715.17175.07342.06997.13173.15432.17129.24782s.05953.19415.05868.29571v.66706h5.27283v-.66706c-.0008-.10156.0192-.20221.0587-.29571.0396-.0935.0979-.17785.1713-.24782.0698-.07362.1539-.13208.2472-.17175.0932-.03966.1936-.05969.2949-.05883.1-.000715.1991.01941.291.0591.0919.0397.1746.09809.2428.17148.0735.06997.1318.15432.1713.24782.0396.0935.0596.19415.0587.29571v.66706h.501c.2134-.00432.4255.03509.6232.1158s.3769.20104.5267.35361c.1554.14977.2781.33037.3601.53029s.1216.41478.1162.63089v9.29761c.0054.2161-.0342.431-.1162.6309s-.2047.3805-.3601.5303c-.1498.1526-.329.2729-.5267.3536s-.4098.1201-.6232.1158zm0-1.647h9.34661v-6.68709h-9.34661v6.70349z" fill="#1b4a4d"/></svg>