<svg width="16" height="16" viewBox="0 0 16 16" fill="none" xmlns="http://www.w3.org/2000/svg">
<g clip-path="url(#clip0_1552_25421)">
<path d="M3.40019 14.1637C3.21594 14.1651 3.03323 14.1299 2.86272 14.0601C2.69221 13.9902 2.5373 13.8871 2.407 13.7568C2.27671 13.6266 2.17364 13.4716 2.1038 13.3011C2.03396 13.1306 1.99874 12.9479 2.00019 12.7637V5.85457C1.99652 5.63519 2.04584 5.41816 2.14396 5.22191C2.24209 5.02566 2.38612 4.85599 2.56383 4.7273L7.16383 1.29093C7.29311 1.20755 7.43084 1.13807 7.57474 1.08366C7.84741 0.972113 8.15298 0.972113 8.42565 1.08366C8.56954 1.13807 8.70727 1.20755 8.83655 1.29093L13.4547 4.7273C13.6246 4.87211 13.761 5.05199 13.8547 5.25457C13.9519 5.44607 14.0017 5.65804 14.0002 5.87275V12.7818C14.0016 12.9661 13.9664 13.1488 13.8966 13.3193C13.8267 13.4898 13.7237 13.6447 13.5934 13.775C13.4631 13.9053 13.3082 14.0084 13.1377 14.0782C12.9671 14.1481 12.7844 14.1833 12.6002 14.1818H9.54565V8.78184H6.47292V14.1637H3.40019Z" fill="#1B4A4D"/>
</g>
<defs>
<clipPath id="clip0_1552_25421">
<rect width="12" height="13.1636" fill="white" transform="translate(2 1)"/>
</clipPath>
</defs>
</svg>
