<svg fill="none" height="16" viewBox="0 0 16 16" width="16" xmlns="http://www.w3.org/2000/svg"><path d="m3.75224 11.0642c.56089-.4502 1.1975-.797 1.88-1.024.70046-.22547 1.43215-.33887 2.168-.33596.73915-.00352 1.47399.11265 2.176.34396.68686.2263 1.32666.5761 1.88796 1.032.3561-.4592.6418-.9687.848-1.51196.2051-.56672.3081-1.16532.304-1.768.0144-.68747-.1131-1.37052-.3746-2.00646-.2616-.63594-.6515-1.2111-1.1454-1.68954-.4784-.49388-1.0536-.88378-1.68949-1.14531-.63594-.26154-1.319-.38909-2.00647-.37469-.68606-.01281-1.36745.11549-2.00186.37697-.63442.26147-1.20834.65053-1.68614 1.14303-.49611.47716-.888 1.0519-1.15098 1.68802-.26299.63611-.39135 1.3198-.37702 2.00798-.00556.60423.10301 1.20407.32 1.768.20466.53906.49064 1.04356.848 1.49596zm4.048-2.52796c-.63652 0-1.24696-.25285-1.69705-.70294s-.70295-1.06054-.70295-1.69706c-.00704-.31419.05118-.62644.17098-.91699s.29857-.55308.52502-.77101c.22474-.21863.49187-.38892.78493-.50037.29307-.11144.60585-.16169.91907-.14763.31286-.00767.62397.04869.91425.16563.29028.11693.55359.29198.77375.51437.22736.2147.40794.47401.53046.76172.1225.2877.1843.59759.1815.91028 0 .63652-.25281 1.24697-.7029 1.69706s-1.06054.70294-1.69706.70294zm0 6.06396c-.91296.0079-1.81754-.1746-2.656-.536-1.63073-.6808-2.92718-1.9772-3.608-3.608-.36132-.83841-.543872-1.74299-.536-2.65596-.007872-.91296.17468-1.81754.536-2.656.68082-1.63073 1.97727-2.92718 3.608-3.608.83846-.36132 1.74304-.543872 2.656-.536.91297-.007872 1.81755.17468 2.65596.536 1.6308.68082 2.9272 1.97727 3.608 3.608.3614.83846.5439 1.74304.536 2.656.0079.91297-.1746 1.81755-.536 2.65596-.6808 1.6308-1.9772 2.9272-3.608 3.608-.83841.3614-1.74299.5439-2.65596.536z" fill="#1b4a4d"/></svg>