<svg width="16" height="16" viewBox="0 0 16 16" fill="none" xmlns="http://www.w3.org/2000/svg">
<path d="M13.0769 13.9975H2.70103C2.47657 14.0042 2.25319 13.9639 2.04523 13.8792C1.83727 13.7945 1.64933 13.6672 1.49349 13.5055C1.33181 13.3497 1.20452 13.1617 1.1198 12.9538C1.03507 12.7458 0.994787 12.5224 1.00153 12.298V1.87737C0.990931 1.70653 1.03568 1.53684 1.12913 1.39344C1.22258 1.25004 1.35976 1.14058 1.52032 1.08129C1.66713 1.00629 1.83472 0.982278 1.99667 1.01305C2.15862 1.04382 2.30573 1.12762 2.4148 1.25124L4.20374 3.04018L3.37188 4.39979L3.5955 4.60551L4.67782 3.48742L6.60988 5.41949L5.50073 6.53758L6.03742 7.08321L7.15551 5.96511L9.07863 7.87929L7.95159 8.99738L8.42566 9.46251L9.54375 8.34441L11.4758 10.2854L10.3577 11.4035L10.8229 11.8686L11.9409 10.7327L13.7299 12.5216C13.8629 12.6336 13.9546 12.787 13.9903 12.9573C14.0259 13.1275 14.0036 13.3048 13.9267 13.4608C13.8617 13.6298 13.7439 13.7734 13.5908 13.8701C13.4377 13.9668 13.2575 14.0115 13.0769 13.9975ZM3.66706 6.10823V11.3141H8.8729L3.66706 6.10823Z" fill="#1B4A4D"/>
</svg>
