<svg width="16" height="16" viewBox="0 0 16 16" fill="none" xmlns="http://www.w3.org/2000/svg">
<path d="M2.59776 14C2.15359 14 1.77625 13.8445 1.46575 13.5335C1.15525 13.223 1 12.8512 1 12.4182V2.4993C1 2.26603 1.05805 2.12729 1.17416 2.08308C1.29079 2.03888 1.43246 2.09427 1.59916 2.24925L2.14799 2.79888L2.7144 2.23247C2.78044 2.15472 2.86352 2.09933 2.96365 2.06631C3.06378 2.03329 3.16364 2.01678 3.26323 2.01678C3.36283 2.01678 3.46269 2.03595 3.56281 2.0743C3.66294 2.11317 3.75161 2.1659 3.82884 2.23247L4.39525 2.79888L4.96086 2.23247C5.03861 2.1659 5.12729 2.11317 5.22688 2.0743C5.32701 2.03595 5.42687 2.01678 5.52646 2.01678C5.62659 2.01678 5.72379 2.03329 5.81806 2.06631C5.91232 2.09933 5.99834 2.15472 6.07609 2.23247L6.6417 2.79888L7.19133 2.23247C7.26909 2.1659 7.35777 2.11051 7.45736 2.06631C7.55695 2.0221 7.65681 2 7.75694 2C7.85707 2 7.95693 2.0221 8.05652 2.06631C8.15612 2.11051 8.24479 2.1659 8.32255 2.23247L8.87218 2.79888L9.43779 2.23247C9.50436 2.15472 9.58771 2.09933 9.68784 2.06631C9.78743 2.03329 9.88729 2.01678 9.98742 2.01678C10.087 2.01678 10.1869 2.03595 10.287 2.0743C10.3866 2.11317 10.4753 2.1659 10.553 2.23247L11.1186 2.79888L11.685 2.23247C11.7623 2.1659 11.8509 2.11317 11.9511 2.0743C12.0512 2.03595 12.1511 2.01678 12.2506 2.01678C12.3502 2.01678 12.4501 2.03329 12.5502 2.06631C12.6504 2.09933 12.7334 2.15472 12.7995 2.23247L13.3659 2.79888L13.9147 2.24925C14.0814 2.09427 14.2231 2.03888 14.3397 2.08308C14.4558 2.12729 14.5139 2.26603 14.5139 2.4993V12.4182C14.5139 12.8512 14.3586 13.223 14.0481 13.5335C13.7376 13.8445 13.3603 14 12.9161 14H2.59776ZM2.59776 12.4182H6.99161V8.42381H2.59776V12.4182ZM8.52227 12.4182H12.9161V11.1871H8.52227V12.4182ZM8.52227 9.65568H12.9161V8.42381H8.52227V9.65568ZM2.59776 6.90913H12.9161V5.16197H2.59776V6.90913Z" fill="#1B4A4D"/>
</svg>
