<svg width="40" height="40" viewBox="0 0 40 40" fill="none" xmlns="http://www.w3.org/2000/svg">
<path d="M20.0008 30.6687C18.5971 30.6922 17.2034 30.4282 15.9057 29.8928C14.6079 29.3574 13.4334 28.562 12.4546 27.5556C11.4465 26.5763 10.6496 25.401 10.1131 24.1021C9.57651 22.8031 9.31167 21.408 9.33485 20.0028C9.311 18.5984 9.57557 17.2041 10.1122 15.9062C10.6488 14.6082 11.4461 13.4341 12.4546 12.4566C13.4321 11.4481 14.6062 10.6508 15.9042 10.1142C17.2022 9.57755 18.5964 9.31298 20.0008 9.33684C21.727 9.29607 23.4355 9.69281 24.9671 10.4901C26.4052 11.271 27.6651 12.3425 28.6668 13.6365V9.33684H30.6667V17.8029H22.2006V15.8031H27.8002C26.9815 14.4943 25.8759 13.3887 24.5671 12.5699C23.1937 11.732 21.6093 11.3041 20.0008 11.3367C18.8595 11.3251 17.7274 11.5414 16.6708 11.9728C15.6141 12.4042 14.6542 13.0421 13.8471 13.8491C13.0401 14.6561 12.4022 15.6161 11.9708 16.6727C11.5394 17.7294 11.3231 18.8615 11.3347 20.0028C11.3249 21.1435 11.5424 22.2748 11.9745 23.3307C12.4065 24.3865 13.0445 25.3457 13.8512 26.1524C14.6578 26.9591 15.6171 27.597 16.6729 28.0291C17.7287 28.4611 18.86 28.6786 20.0008 28.6688C21.8135 28.6803 23.5847 28.1257 25.0671 27.0823C26.563 26.0775 27.6873 24.6089 28.2669 22.9026H30.3334C29.7387 25.1639 28.3856 27.1524 26.5003 28.5355C24.6268 29.9409 22.3427 30.6905 20.0008 30.6687V30.6687Z" fill="#1B4A4D"/>
</svg>
