<svg width="40" height="40" viewBox="0 0 40 40" fill="none" xmlns="http://www.w3.org/2000/svg">
<mask id="mask0_1480_24818" style="mask-type:alpha" maskUnits="userSpaceOnUse" x="10" y="10" width="20" height="20">
<path fill-rule="evenodd" clip-rule="evenodd" d="M15.3846 30H24.6154C26.0435 30 27.4131 29.4327 28.4229 28.4229C29.4327 27.4131 30 26.0435 30 24.6154V15.3846C30 13.9565 29.4327 12.5869 28.4229 11.5771C27.4131 10.5673 26.0435 10 24.6154 10H15.3846C13.9565 10 12.5869 10.5673 11.5771 11.5771C10.5673 12.5869 10 13.9565 10 15.3846V24.6154C10 26.0435 10.5673 27.4131 11.5771 28.4229C12.5869 29.4327 13.9565 30 15.3846 30ZM12.665 12.665C13.3863 11.9437 14.3646 11.5385 15.3846 11.5385H24.6154C25.6354 11.5385 26.6137 11.9437 27.335 12.665C28.0563 13.3863 28.4615 14.3646 28.4615 15.3846V24.6154C28.4615 25.6354 28.0563 26.6137 27.335 27.335C26.6137 28.0563 25.6354 28.4615 24.6154 28.4615H15.3846C14.3646 28.4615 13.3863 28.0563 12.665 27.335C11.9437 26.6137 11.5385 25.6354 11.5385 24.6154V15.3846C11.5385 14.3646 11.9437 13.3863 12.665 12.665ZM25.7692 15.3839C26.4065 15.3839 26.923 14.8673 26.923 14.23C26.923 13.5928 26.4065 13.0762 25.7692 13.0762C25.132 13.0762 24.6154 13.5928 24.6154 14.23C24.6154 14.8673 25.132 15.3839 25.7692 15.3839ZM20 25.3846C18.935 25.3846 17.894 25.0688 17.0085 24.4771C16.123 23.8855 15.4328 23.0445 15.0253 22.0606C14.6177 21.0767 14.5111 19.994 14.7189 18.9495C14.9266 17.905 15.4395 16.9456 16.1925 16.1925C16.9456 15.4395 17.905 14.9266 18.9495 14.7189C19.994 14.5111 21.0767 14.6177 22.0606 15.0253C23.0445 15.4328 23.8855 16.123 24.4771 17.0085C25.0688 17.894 25.3846 18.935 25.3846 20C25.3846 21.4281 24.8173 22.7977 23.8075 23.8075C22.7977 24.8173 21.4281 25.3846 20 25.3846ZM20 16.1538C19.2393 16.1538 18.4957 16.3794 17.8632 16.802C17.2307 17.2247 16.7377 17.8254 16.4466 18.5281C16.1555 19.2309 16.0793 20.0043 16.2278 20.7504C16.3762 21.4964 16.7425 22.1818 17.2804 22.7196C17.8183 23.2575 18.5036 23.6238 19.2497 23.7723C19.9957 23.9207 20.7691 23.8445 21.4719 23.5534C22.1747 23.2623 22.7753 22.7693 23.198 22.1368C23.6206 21.5043 23.8462 20.7607 23.8462 20C23.8462 18.9799 23.4409 18.0017 22.7196 17.2804C21.9984 16.5591 21.0201 16.1538 20 16.1538Z" fill="white"/>
</mask>
<g mask="url(#mask0_1480_24818)">
<path d="M31.1111 40H8.88889C6.53141 40 4.27049 39.0635 2.60349 37.3965C0.936505 35.7295 0 33.4686 0 31.1111V8.88889C0 6.53141 0.936505 4.27049 2.60349 2.60349C4.27049 0.936505 6.53141 0 8.88889 0H31.1111C33.4686 0 35.7295 0.936505 37.3965 2.60349C39.0635 4.27049 40 6.53141 40 8.88889V31.1111C40 33.4686 39.0635 35.7295 37.3965 37.3965C35.7295 39.0635 33.4686 40 31.1111 40Z" fill="url(#paint0_radial_1480_24818)"/>
<path d="M31.1111 40H8.88889C6.53141 40 4.27049 39.0635 2.60349 37.3965C0.936505 35.7295 0 33.4686 0 31.1111V8.88889C0 6.53141 0.936505 4.27049 2.60349 2.60349C4.27049 0.936505 6.53141 0 8.88889 0H31.1111C33.4686 0 35.7295 0.936505 37.3965 2.60349C39.0635 4.27049 40 6.53141 40 8.88889V31.1111C40 33.4686 39.0635 35.7295 37.3965 37.3965C35.7295 39.0635 33.4686 40 31.1111 40Z" fill="url(#paint1_radial_1480_24818)"/>
</g>
<defs>
<radialGradient id="paint0_radial_1480_24818" cx="0" cy="0" r="1" gradientUnits="userSpaceOnUse" gradientTransform="translate(14.8667 40.0333) scale(49.8889)">
<stop stop-color="#FFDD55"/>
<stop offset="0.33" stop-color="#FF543F"/>
<stop offset="0.35" stop-color="#FC5245"/>
<stop offset="0.5" stop-color="#E64771"/>
<stop offset="0.64" stop-color="#D53E91"/>
<stop offset="0.76" stop-color="#CC39A4"/>
<stop offset="0.84" stop-color="#C837AB"/>
</radialGradient>
<radialGradient id="paint1_radial_1480_24818" cx="0" cy="0" r="1" gradientUnits="userSpaceOnUse" gradientTransform="translate(6.43333 0.492445) scale(33.1222 22.1919)">
<stop stop-color="#4168C9"/>
<stop offset="1" stop-color="#4168C9" stop-opacity="0"/>
</radialGradient>
</defs>
</svg>
