<svg width="40" height="40" viewBox="0 0 40 40" fill="none" xmlns="http://www.w3.org/2000/svg">
<path d="M30.9989 18.5245C30.9989 13.8216 26.288 10 20.5034 10C14.7189 10 10 13.8216 10 18.5245C10 22.7307 13.7335 26.2639 18.813 26.9289C19.1575 27.001 19.6141 27.1532 19.7343 27.4497C19.8062 27.7607 19.8062 28.084 19.7343 28.3951C19.7343 28.3951 19.6061 29.1401 19.5821 29.3004C19.5581 29.4606 19.3738 30.3339 20.4874 29.8612C21.6011 29.3885 26.5443 26.304 28.7476 23.7963C30.1592 22.4015 30.9675 20.5088 30.9989 18.5245V18.5245ZM16.3934 21.3206H14.3023C14.1557 21.3206 14.0151 21.2624 13.9114 21.1587C13.8078 21.0551 13.7495 20.9144 13.7495 20.7678V16.5857C13.7495 16.4348 13.8094 16.2901 13.9161 16.1835C14.0228 16.0768 14.1675 16.0168 14.3184 16.0168C14.4692 16.0168 14.6139 16.0768 14.7206 16.1835C14.8273 16.2901 14.8872 16.4348 14.8872 16.5857V20.207H16.4254C16.5721 20.207 16.7127 20.2653 16.8163 20.3689C16.92 20.4726 16.9783 20.6132 16.9783 20.7598C16.9783 20.9064 16.92 21.047 16.8163 21.1507C16.7127 21.2544 16.5721 21.3126 16.4254 21.3126L16.3934 21.3206ZM18.5486 20.7678C18.5486 20.9144 18.4903 21.0551 18.3867 21.1587C18.283 21.2624 18.1424 21.3206 17.9958 21.3206C17.8491 21.3206 17.7085 21.2624 17.6049 21.1587C17.5012 21.0551 17.4429 20.9144 17.4429 20.7678V16.5857C17.4429 16.4391 17.5012 16.2985 17.6049 16.1948C17.7085 16.0911 17.8491 16.0329 17.9958 16.0329C18.1424 16.0329 18.283 16.0911 18.3867 16.1948C18.4903 16.2985 18.5486 16.4391 18.5486 16.5857V20.7678ZM23.572 20.7678C23.5725 20.8833 23.5363 20.996 23.4686 21.0896C23.401 21.1833 23.3053 21.2529 23.1954 21.2886C23.1372 21.3 23.0773 21.3 23.0191 21.2886C22.9334 21.2874 22.8492 21.2665 22.7728 21.2276C22.6964 21.1887 22.6299 21.1328 22.5785 21.0643L20.4394 18.188V20.7678C20.4394 20.9144 20.3811 21.0551 20.2774 21.1587C20.1738 21.2624 20.0332 21.3206 19.8865 21.3206C19.8143 21.3207 19.7428 21.3063 19.6762 21.2784C19.6096 21.2505 19.5491 21.2097 19.4984 21.1583C19.4477 21.1068 19.4078 21.0458 19.3809 20.9788C19.354 20.9118 19.3407 20.84 19.3417 20.7678V16.5857C19.3399 16.4699 19.3756 16.3566 19.4435 16.2627C19.5113 16.1689 19.6077 16.0995 19.7183 16.0649C19.7738 16.0535 19.831 16.0535 19.8865 16.0649C19.9722 16.0661 20.0565 16.087 20.1329 16.1259C20.2093 16.1648 20.2758 16.2207 20.3272 16.2892L22.4663 19.1975V16.5857C22.4663 16.4391 22.5246 16.2985 22.6282 16.1948C22.7319 16.0911 22.8725 16.0329 23.0191 16.0329C23.1658 16.0329 23.3064 16.0911 23.41 16.1948C23.5137 16.2985 23.572 16.4391 23.572 16.5857V20.7678ZM26.9449 18.132C27.0226 18.1226 27.1013 18.1297 27.176 18.153C27.2506 18.1763 27.3195 18.2152 27.378 18.267C27.4365 18.3189 27.4834 18.3826 27.5155 18.4539C27.5476 18.5252 27.5642 18.6026 27.5642 18.6808C27.5642 18.759 27.5476 18.8363 27.5155 18.9076C27.4834 18.9789 27.4365 19.0426 27.378 19.0945C27.3195 19.1464 27.2506 19.1852 27.176 19.2085C27.1013 19.2318 27.0226 19.239 26.9449 19.2296H25.4067V20.215H26.9449C27.0915 20.215 27.2321 20.2733 27.3358 20.3769C27.4395 20.4806 27.4977 20.6212 27.4977 20.7678C27.4977 20.9144 27.4395 21.0551 27.3358 21.1587C27.2321 21.2624 27.0915 21.3206 26.9449 21.3206H24.8619C24.7152 21.3206 24.5746 21.2624 24.471 21.1587C24.3673 21.0551 24.309 20.9144 24.309 20.7678V18.6848V16.5857C24.309 16.5131 24.3233 16.4412 24.3511 16.3741C24.3789 16.3071 24.4196 16.2461 24.471 16.1948C24.5223 16.1435 24.5832 16.1027 24.6503 16.075C24.7174 16.0472 24.7893 16.0329 24.8619 16.0329H26.9449C27.0915 16.0329 27.2321 16.0911 27.3358 16.1948C27.4395 16.2985 27.4977 16.4391 27.4977 16.5857C27.4977 16.7323 27.4395 16.8729 27.3358 16.9766C27.2321 17.0803 27.0915 17.1385 26.9449 17.1385H25.4067V18.1239L26.9449 18.132Z" fill="#00C300"/>
</svg>
