<svg width="40" height="40" viewBox="0 0 40 40" fill="none" xmlns="http://www.w3.org/2000/svg">
<path d="M22.3704 30.0747V28.2377C24.2387 27.7209 25.8868 26.6076 27.0637 25.0673C28.2625 23.5497 28.9065 21.6679 28.8889 19.734C28.898 17.7878 28.2638 15.8932 27.085 14.3446C25.9062 12.7961 24.2487 11.6804 22.3704 11.171V9.33398C24.7363 9.85313 26.8517 11.1698 28.3622 13.0633C29.8727 14.9568 30.6863 17.3119 30.6667 19.734C30.6817 22.1515 29.8657 24.5009 28.3555 26.3887C26.8452 28.2765 24.7323 29.5883 22.3704 30.1044V30.0747ZM9.33337 23.2895V16.1784H14.0741L20 10.2525V29.2155L14.0741 23.2895H9.33337ZM21.7778 24.7118V14.7266C22.8348 15.0425 23.7511 15.7119 24.3734 16.6229C25.008 17.5354 25.3435 18.6225 25.3334 19.734C25.3401 20.8385 24.9979 21.9169 24.3556 22.8155C23.7354 23.7208 22.8268 24.3893 21.7778 24.7118V24.7118ZM18.2223 14.7562L14.8741 17.9562H11.1112V21.5118H14.8741L18.2223 24.7414V14.7562Z" fill="#1B4A4D"/>
</svg>
