<svg width="32" height="32" viewBox="0 0 32 32" fill="none" xmlns="http://www.w3.org/2000/svg">
<circle r="15.5" transform="matrix(-4.37114e-08 -1 -1 4.37114e-08 16 16)" fill="white" stroke="#1B4A4D"/>
<path d="M20.2667 17.4249C20.267 17.3339 20.2469 17.2439 20.2079 17.1617C20.1689 17.0794 20.1119 17.0069 20.0412 16.9496L16.3844 14.0058C16.2753 13.9162 16.1385 13.8672 15.9974 13.8672C15.8562 13.8672 15.7194 13.9162 15.6104 14.0058L11.9536 17.0532C11.8291 17.1566 11.7508 17.3053 11.736 17.4664C11.7211 17.6276 11.7709 17.788 11.8743 17.9125C11.9778 18.037 12.1264 18.1152 12.2876 18.1301C12.4488 18.145 12.6092 18.0952 12.7337 17.9917L16.0004 15.2674L19.2672 17.9003C19.3566 17.9749 19.4656 18.0222 19.5811 18.0367C19.6966 18.0513 19.8139 18.0325 19.919 17.9824C20.0242 17.9324 20.1128 17.8534 20.1744 17.7546C20.236 17.6558 20.268 17.5414 20.2667 17.4249Z" fill="#1B4A4D"/>
</svg>
