<svg width="30" height="30" viewBox="0 0 30 30" fill="none" xmlns="http://www.w3.org/2000/svg">
<path d="M3.8086 3.75001L6.19336 8.64844H10.3828L7.99805 3.75001H10.8984L13.2832 8.64844H17.4727L15.0879 3.75001H17.9238L20.3086 8.64844H24.498L22.1133 3.75001H25.7226C25.9759 3.74925 26.2266 3.80033 26.4594 3.90009C26.6922 3.99985 26.9021 4.14618 27.0762 4.33009C27.2601 4.50419 27.4064 4.71409 27.5062 4.94686C27.6059 5.17963 27.657 5.43035 27.6562 5.6836V22.4414C27.657 22.6946 27.6059 22.9454 27.5062 23.1781C27.4064 23.4109 27.2601 23.6208 27.0762 23.7949C26.9021 23.9788 26.6922 24.1252 26.4594 24.2249C26.2266 24.3247 25.9759 24.3757 25.7226 24.375H3.8086C3.55535 24.3757 3.30463 24.3247 3.07186 24.2249C2.83909 24.1252 2.62919 23.9788 2.45509 23.7949C2.27118 23.6208 2.12485 23.4109 2.02509 23.1781C1.92533 22.9454 1.87425 22.6946 1.87501 22.4414V5.6836C1.87425 5.43035 1.92533 5.17963 2.02509 4.94686C2.12485 4.71409 2.27118 4.50419 2.45509 4.33009C2.62919 4.14618 2.83909 3.99985 3.07186 3.90009C3.30463 3.80033 3.55535 3.74925 3.8086 3.75001ZM3.8086 10.582V22.4414H25.7226V10.582H3.8086Z" fill="#95C750"/>
</svg>
